<mxfile host="Electron" agent="Mozilla/5.0 (Windows NT 10.0; Win64; x64) AppleWebKit/537.36 (KHTML, like Gecko) draw.io/24.7.17 Chrome/128.0.6613.36 Electron/32.0.1 Safari/537.36" version="24.7.17">
  <diagram name="Страница — 1" id="HzXg4JQp2oZtwwxCVgAA">
    <mxGraphModel dx="1221" dy="717" grid="1" gridSize="8" guides="1" tooltips="1" connect="1" arrows="1" fold="1" page="1" pageScale="1" pageWidth="1169" pageHeight="1654" math="0" shadow="0">
      <root>
        <mxCell id="0" />
        <mxCell id="1" parent="0" />
        <mxCell id="hqYTHTNWbjo1vj10XiDc-6" style="edgeStyle=orthogonalEdgeStyle;rounded=0;orthogonalLoop=1;jettySize=auto;html=1;" parent="1" source="hqYTHTNWbjo1vj10XiDc-1" target="hqYTHTNWbjo1vj10XiDc-2" edge="1">
          <mxGeometry relative="1" as="geometry" />
        </mxCell>
        <mxCell id="hqYTHTNWbjo1vj10XiDc-1" value="&lt;font color=&quot;#ff3333&quot;&gt;Start&lt;/font&gt;" style="ellipse;whiteSpace=wrap;html=1;" parent="1" vertex="1">
          <mxGeometry x="525" y="20" width="120" height="80" as="geometry" />
        </mxCell>
        <mxCell id="hqYTHTNWbjo1vj10XiDc-5" style="edgeStyle=orthogonalEdgeStyle;rounded=0;orthogonalLoop=1;jettySize=auto;html=1;" parent="1" source="hqYTHTNWbjo1vj10XiDc-2" target="hqYTHTNWbjo1vj10XiDc-3" edge="1">
          <mxGeometry relative="1" as="geometry" />
        </mxCell>
        <mxCell id="hqYTHTNWbjo1vj10XiDc-2" value="Cycle" style="rounded=0;whiteSpace=wrap;html=1;" parent="1" vertex="1">
          <mxGeometry x="542.5" y="130" width="85" height="40" as="geometry" />
        </mxCell>
        <mxCell id="hqYTHTNWbjo1vj10XiDc-11" style="edgeStyle=orthogonalEdgeStyle;rounded=0;orthogonalLoop=1;jettySize=auto;html=1;" parent="1" source="hqYTHTNWbjo1vj10XiDc-3" edge="1">
          <mxGeometry relative="1" as="geometry">
            <mxPoint x="585" y="280" as="targetPoint" />
          </mxGeometry>
        </mxCell>
        <mxCell id="hqYTHTNWbjo1vj10XiDc-3" value="Enter f of d" style="shape=parallelogram;perimeter=parallelogramPerimeter;whiteSpace=wrap;html=1;fixedSize=1;" parent="1" vertex="1">
          <mxGeometry x="530" y="200" width="110" height="40" as="geometry" />
        </mxCell>
        <mxCell id="hqYTHTNWbjo1vj10XiDc-9" value="" style="curved=1;endArrow=classic;html=1;rounded=0;exitX=0;exitY=0.5;exitDx=0;exitDy=0;" parent="1" source="hqYTHTNWbjo1vj10XiDc-3" edge="1">
          <mxGeometry width="50" height="50" relative="1" as="geometry">
            <mxPoint x="492.5" y="200" as="sourcePoint" />
            <mxPoint x="542.5" y="150" as="targetPoint" />
            <Array as="points">
              <mxPoint x="510" y="220" />
              <mxPoint x="470" y="220" />
              <mxPoint x="470" y="200" />
              <mxPoint x="470" y="180" />
              <mxPoint x="470" y="150" />
              <mxPoint x="492.5" y="150" />
            </Array>
          </mxGeometry>
        </mxCell>
        <mxCell id="hqYTHTNWbjo1vj10XiDc-10" value="!f &amp;amp;&amp;amp; !d" style="edgeLabel;html=1;align=center;verticalAlign=middle;resizable=0;points=[];" parent="hqYTHTNWbjo1vj10XiDc-9" vertex="1" connectable="0">
          <mxGeometry x="0.0102" relative="1" as="geometry">
            <mxPoint as="offset" />
          </mxGeometry>
        </mxCell>
        <mxCell id="hqYTHTNWbjo1vj10XiDc-13" style="edgeStyle=orthogonalEdgeStyle;rounded=0;orthogonalLoop=1;jettySize=auto;html=1;" parent="1" edge="1">
          <mxGeometry relative="1" as="geometry">
            <mxPoint x="718" y="400" as="targetPoint" />
            <mxPoint x="600" y="315" as="sourcePoint" />
          </mxGeometry>
        </mxCell>
        <mxCell id="hqYTHTNWbjo1vj10XiDc-16" value="No" style="edgeLabel;html=1;align=center;verticalAlign=middle;resizable=0;points=[];" parent="hqYTHTNWbjo1vj10XiDc-13" vertex="1" connectable="0">
          <mxGeometry x="-0.3202" y="1" relative="1" as="geometry">
            <mxPoint as="offset" />
          </mxGeometry>
        </mxCell>
        <mxCell id="hqYTHTNWbjo1vj10XiDc-14" style="edgeStyle=orthogonalEdgeStyle;rounded=0;orthogonalLoop=1;jettySize=auto;html=1;" parent="1" source="hqYTHTNWbjo1vj10XiDc-12" edge="1">
          <mxGeometry relative="1" as="geometry">
            <mxPoint x="440" y="400" as="targetPoint" />
          </mxGeometry>
        </mxCell>
        <mxCell id="hqYTHTNWbjo1vj10XiDc-15" value="Yes" style="edgeLabel;html=1;align=center;verticalAlign=middle;resizable=0;points=[];" parent="hqYTHTNWbjo1vj10XiDc-14" vertex="1" connectable="0">
          <mxGeometry x="-0.4987" y="1" relative="1" as="geometry">
            <mxPoint as="offset" />
          </mxGeometry>
        </mxCell>
        <mxCell id="hqYTHTNWbjo1vj10XiDc-12" value="is input d?" style="rhombus;whiteSpace=wrap;html=1;" parent="1" vertex="1">
          <mxGeometry x="547" y="280" width="75" height="70" as="geometry" />
        </mxCell>
        <mxCell id="hqYTHTNWbjo1vj10XiDc-20" style="edgeStyle=orthogonalEdgeStyle;rounded=0;orthogonalLoop=1;jettySize=auto;html=1;" parent="1" source="hqYTHTNWbjo1vj10XiDc-17" edge="1">
          <mxGeometry relative="1" as="geometry">
            <mxPoint x="440" y="480" as="targetPoint" />
          </mxGeometry>
        </mxCell>
        <mxCell id="hqYTHTNWbjo1vj10XiDc-17" value="double a,b" style="rounded=0;whiteSpace=wrap;html=1;" parent="1" vertex="1">
          <mxGeometry x="390" y="390" width="100" height="50" as="geometry" />
        </mxCell>
        <mxCell id="hqYTHTNWbjo1vj10XiDc-25" style="edgeStyle=orthogonalEdgeStyle;rounded=0;orthogonalLoop=1;jettySize=auto;html=1;entryX=0.5;entryY=0;entryDx=0;entryDy=0;" parent="1" source="hqYTHTNWbjo1vj10XiDc-19" edge="1">
          <mxGeometry relative="1" as="geometry">
            <mxPoint x="720" y="470" as="targetPoint" />
          </mxGeometry>
        </mxCell>
        <mxCell id="hqYTHTNWbjo1vj10XiDc-19" value="float a,b" style="rounded=0;whiteSpace=wrap;html=1;" parent="1" vertex="1">
          <mxGeometry x="670" y="390" width="100" height="50" as="geometry" />
        </mxCell>
        <mxCell id="hqYTHTNWbjo1vj10XiDc-27" style="edgeStyle=orthogonalEdgeStyle;rounded=0;orthogonalLoop=1;jettySize=auto;html=1;" parent="1" source="hqYTHTNWbjo1vj10XiDc-23" target="hqYTHTNWbjo1vj10XiDc-26" edge="1">
          <mxGeometry relative="1" as="geometry" />
        </mxCell>
        <mxCell id="hqYTHTNWbjo1vj10XiDc-23" value="calculating&lt;img height=&quot;27&quot; width=&quot;86&quot; src=&quot;data:image/png;base64,iVBORw0KGgoAAAANSUhEUgAAAFYAAAAbCAYAAADmkHhFAAAAAXNSR0IArs4c6QAAAARnQU1BAACxjwv8YQUAAAAJcEhZcwAADsMAAA7DAcdvqGQAAAkuSURBVGhD7Zp1yJZJF8aP3e6a2LFrYCBid2Ggazcm2IGKGKiofP+oWCiKCcYqiJgYqCgqFjZ2d3dh97e/w14P4+Or7/P6/eEufBcMc98zZ85cc+bMmZn7eRKlS5fus/0fMSNx4sT26dMny5Ili40dO9bmzp1rBw8ejJQLif/OY0aiRIm+SCgkqe6fAHHTszgmSZLkC66hnGTCctXpWfXo6dGjhzVo0MBSpkzpMtFIkGFR+vnzZ08Cs0RS3T8B4ihO4vjx48eIV0lGcpIJ2wGewxwdtWvXthQpUti5c+csadKkXh6NBBk27Eydly1b1urXr+/P8oafjZBfmjRprEyZMtahQwcbP368tWzZ0mXkfeTIVapUyWrVquV1GFjlSiovUKCAlSxZ0pYuXRrRERditoTIhsq6d+9uzZo1s+PHj3+zg58JOBUsWNCNNmTIEDeuykO+PJ84ccIqVqxoo0ePtlSpUkWMSx05oLxt27a2Zs0ae/r0qXttWB/qjcmwCGvWAJ0OHjzYypcvb2PGjLFbt259JfO/IiRJHk5oWBcX5GXIHD161GbOnGkPHjywhw8f2v79+yP1JMaC3PPnz23cuHGWPn16mzx5sqVOndp1qR/kiKmHDh2ys2fP2rt37+z9+/f24sULrwPSCWI+FWgwKGnfvr317dvX2rRpYzdu3PBgTrmU/mzIGEwGnMqVK2fLli2zXbt2WceOHb0MmZCvxpY2bVpbtWqV7du3z70XHZTnzp3b5syZY3fv3rVXr155iMHDMfKsWbNs8+bNEZ2keD0WYSUa/P777zZ06FBbt27dV0YNZZUgphS+8yz9cUHtAUuwSJEiPhgQ1sUHuBET4Ym3AjacUIeMQTkeiAE7d+7sMZf2yGHMlStX2pkzZ+zSpUt2/fp191pW65MnT1xPiHgNK4MB8q5du1qmTJls/fr1/i5S0SRVBzGl8D2UiQvUSWf+/Plt4cKFVrRoUX8P6+KCdNNPsmTJPGSBvXv3ehlLODwhAHGj3c6dO90zBwwY4JNK2aNHj2zevHk2ceJEmzJlik2fPt0nYfHixXbgwIFIfxpPTB4LaMQAmzRpYhcuXLDLly+7Eg0C6FleDCk2DIj06tXLl1m9evWsf//+ljlzZpfHe+NCqBeEz4D6byHkkzNnTitdurR72cmTJ61atWo2adIkNxDHJvWjNuTEYjazUqVK+XJnLHgz42Ki4MxYXr586edYjSHUE7Nhyenk119/9fMbSyNUFBLEGwoXLmzLly+3mjVr2pYtWyx58uQ2bNgwmzBhgh/P2CzUNszDpLIQYXmYVBadFytWzFcYtyNOBlOnTrU6depYu3btbMGCBdapU6eIbDiZ58+fd4PBnzJ544cPH/z52rVrPg68W3VKIKZQoMSZFVy5csVzkSHxLALFixf3c96pU6c8dGzYsMFmz55thQoVck/dtm2bvX379ov2gvSEz4rJyqPrBemRTlLlypW9jL6ZTAzaqFEj+/PPP11fly5dIiss1MX+AfD2X375xetB2IeMrPcQ8RoW0IiNg8MxePz4sedCOEDu0MQfgvuIESOcPIklpM6JdZIPCfEMUSURZ8mFueKjUqgj1MvRqUKFCv7OxkNIYheHGxPNpgNfTRhtlO7du+ft8uTJYxkzZozoDXMlvYeI+z4WBRoRUwgD4PXr1955qEyEevfu7RPQqlUrNwCxiZx4myNHDrtz546dPn3aZYHIYSDCRcOGDS1XrlzeBk9i582ePbsbiWPe1atX/WCOPAa5ffu2b6Rv3rzxd5UDwhEXhD179tiSJUu8HD5MGBsYHvzXcTPCJQQrCg7UwwsZ6QfRbaLfY/ZYCNEBgJggwwAMyjGFpc5BGiLqkGNavnz53FvxeLUJCdEHS49NhaMOiXiI17FJcDWtW7dupA45whPtBPFBLzcuOMCHCaIc7tThKHgiE40BQx4Aw9IG3UwwiJb5HmIyrAjJoHiMoM7IGzdu7AZgs0JWAyS1aNHCB4n3aPBK0sFKGDVqlDVv3txat27tXs/dftCgQX5zGjlypL+TqENu+PDhHiIAetCHV2EQ4isGYuOiPMRvv/3mxt2+fbvLi4uAMeHLODA8iNbxPcTssZDnfgwwnjohpx4SnBqYZQ7RlGtTqFGjhhuBcx8bmgxJrqR35DUYeZIGRp3eScipDJCLT968eX0T5WhIXFW9cpyAiVyxYoWXqZ2A87BC4SxvD+vjQ8wei2E5uwICPgiJZsiQwbJly+ZkOUxTBiGWP2dZYiznSI4x3MNFlJwE9MwkKelddXHVk9Re4LbFbo63wkkeyEQQbjDstGnTIscqoPGgh5hOzs3q2bNnkbpYEa9hRRzF3DAA9+Zo4D0YEqPphkT869atm128eNEHRHtiLZsQ76FuQE6SF4Y5m43eo+VIQLrIOX8CvkQhBz8SFwY+H65du9avrqFRxQdwGQJ8ueP0ILlYEa+0SAM2HnZSzoQYUHV0yqweO3bMj1Ucwjdt2uQfMfj4wYCQ4dZDfGQzAQyCQceFcJAsSVaDNk+guhDwkYFu3rzpnsoHGCaabw188psxY4bH+YEDB3r8BZogIB06Wu7YscPr0SmZWJDkr1jyn7+fvwkNkpljJqtWreozzpIPB8gxiuVH/Dt8+LD/JsQtjbKsWbN67MVLuLVg6FiIIoM+dm9OGsS870F6d+/e7dfS6tWr+ybG9ZQQtmjRIv/ugE7Jagx6Z1PD8Pfv33fvxjFALHyFeD8bhp1ChisiV1U+SPDdUhsUUMcQkwFoR310GbIaVEIIfw/SRU4SL660POsrVNi/gLy4Mhnz58/308jq1asj8iBWrj/0PZZfDriqcoQiuKtj6kWYMoC8ysMyoPK4QB1QOxLtpE910ZBOcvFSf7xTzrtkBJ5JOA/fEHCCfv36fcU5VsQcCkSEdOTIEd8E/vjjD9u6datvLBoE0LPeaROWSY/q4wNyMkYsQDeINqj0RPdPvfT37NnTTzJ8MFIMplw6Y0WCPDY679Onj8dPfvpgmVGW0Jn9mYAvCcNxNm/atKmVKFHCPylyO4x2kITgh/6wEXZYpUoVv09v3LgxMvP/FsAXMA6uzXyj4GMNYwjHIuMnBAkyLB0AOomezbDu3wIZLNpwMuqPj8nsv+TfvdS0B6g2AAAAAElFTkSuQmCC&quot;&gt;" style="rounded=0;whiteSpace=wrap;html=1;" parent="1" vertex="1">
          <mxGeometry x="390" y="470" width="100" height="50" as="geometry" />
        </mxCell>
        <mxCell id="hqYTHTNWbjo1vj10XiDc-31" style="edgeStyle=orthogonalEdgeStyle;rounded=0;orthogonalLoop=1;jettySize=auto;html=1;entryX=0.5;entryY=0;entryDx=0;entryDy=0;" parent="1" target="hqYTHTNWbjo1vj10XiDc-29" edge="1">
          <mxGeometry relative="1" as="geometry">
            <mxPoint x="720" y="520" as="sourcePoint" />
          </mxGeometry>
        </mxCell>
        <mxCell id="hqYTHTNWbjo1vj10XiDc-34" style="edgeStyle=orthogonalEdgeStyle;rounded=0;orthogonalLoop=1;jettySize=auto;html=1;" parent="1" source="hqYTHTNWbjo1vj10XiDc-26" edge="1">
          <mxGeometry relative="1" as="geometry">
            <mxPoint x="440" y="630" as="targetPoint" />
          </mxGeometry>
        </mxCell>
        <mxCell id="hqYTHTNWbjo1vj10XiDc-26" value="Calculating" style="rounded=0;whiteSpace=wrap;html=1;" parent="1" vertex="1">
          <mxGeometry x="390" y="550" width="100" height="50" as="geometry" />
        </mxCell>
        <mxCell id="hqYTHTNWbjo1vj10XiDc-28" value="" style="shape=image;verticalLabelPosition=bottom;labelBackgroundColor=default;verticalAlign=top;aspect=fixed;imageAspect=0;image=data:image/png,iVBORw0KGgoAAAANSUhEUgAAALkAAAAaCAYAAADrJf0cAAAAAXNSR0IArs4c6QAAAARnQU1BAACxjwv8YQUAAAAJcEhZcwAADsMAAA7DAcdvqGQAABKNSURBVHhe7dwFrKbF1QfwYVnc3d3d3YO7u6V4cQgkuAV3De5ugeDutFDcaYu7u+u3v+n3v519e+/u3bLQNuGfTOZ5Rs6cM3PmzJnzvPcOMdJII/1c+mGIIYaQdcH7zz/Xqor2eUAIHflPP/1URhxxxHLWWWeVaaaZpiyxxBLl/fff/xfavwXCl3E9h4e8Dwo/6Q8rrLBCGXXUUcsLL7xQdt999yrvaqutVj755JP+6KZ9ysxNW/9bIry0SBl+pN7ypl3aTj755GXbbbctTz75ZBluuOHKjjvuWO6+++6y1VZb/Yu8GS9lqW/L5H/4wx/KZJNNVh599NGy+uqrlwUXXLCsu+665c9//nN/7SC0g7wPOcwww+yXxtCnT5/63NmhNwgdNPK+5pprllFGGaUMNdRQ5dprry1ffPFFF1O/FVr58vzvyBeEhpwy33///eX111+vabnllitXX311+eyzz/obN2Mm/SeAn5b37vgbVLT6MvHEE5c//elP5fbbby8PPfRQ+eqrr8raa69drrrqqjof0DleUovwNfzww5cRRhihnHnmmeW5554rN998c1lllVXKDz/8UO65554uGWyQ0Ag/oA76hKBcAx0QXmONNcqUU07ZVd4btMyis/TSS5cff/yxXHfddaXfidFf/W+JzgkYe+yxyzrrrFMmnXTSWp7J6C1Cj4zvvPNOV/+xxhqrXHzxxeWtt97qGkvdGGOMURZZZJGyxRZblCOPPLLMNddctX1v53VwAT/hScI/TDDBBGWppZYqa6211iDPSUvzqaeeKn//+9/L0EMPXYYccsjyxhtvlDfffLN88803tW3GNR+LLrpo2XzzzcvRRx9d5phjjlpuPuSh9/XXX5c777yzlkveX3zxxfLpp5/WetB23nnnLYsvvnh9J1PmVR30CUFJgymmmKIccsghVTlfeeWVrkEHhtAwADoma5555qlWjRWHCAHJf220fIF8zz33LEcddVSZZZZZusoGBS1NyQZ2hG6zzTbl6aef7lIe6Nu3bx3HIuy7775lpZVW6m+RfguE3zbhcfbZZy/nnHNOOf3008t8881XT1lpUBD9gSgY3ZFmmmmmqqQffvhhLdeWLsw888xlscUWK/vtt19Zfvnly5dfftmfjnmW0Eu5fMIJJ6x0WPS2/bPPPlv533vvvav1Dx+RtVryCD311FPXnXXTTTfVIwaj0BLsCdpEWAOx4pdcckndfd99912l5chKu97QDD15mM57b9DZnowsuFMKekunEy3vnocddth6+n3//ffllFNOKbPNNlt/C37HHXeUCy64oM7DI488Uq2Rfr2ZgwCv4RddKRiYHBkrNPC25ZZbVgNEqfm9+++/f7nhhhvKBx980NWnN2jHzjOZJ5lkkjLeeOOVs88+u782XA2Kf95559Vnbo35SJuWTylyKl9xxRXLbbfdVv72t7/V8rSlVwwzt/iII46oawHqtKlKDi5PxxxzTPnLX/5ShWWB0ihtBoS0MYEs+HrrrVct2/HHH1+23nrrMv7441frOcMMM/xj4GaReoJ2ydFt33sD7dJW/+mnn74uqBMKBpVekHlB0/N7771XzjjjjLLhhhtWJbHB2zkjqzlxjPNZKUFv5G/RKYsUDIj/8JHx9Nt1113LPvvsUwMCLorvvvtuXW9t0r7lf2AIb/qgT8ms/xVXXFHefvvtWt7ybxzuijFtesYhbTJu2oYmd48xYTj1S7069Mypk3Laaaet8mV+9K+SK9hhhx2qb+b40kmZ1A7WJm2SOutcwK688sry2muv1aiDSfz222/ru8tIb4EWuKljvt2hA0N4wR+YIG6K+8HDDz9cy0xMJ9Kv7d/KmTxtM8kUmIK7ELXI/IkKeBYl0J7P2tJN6glt/UQTTVQtZTCgfsY0BuB1gw02qFGPW2+9tRx44IFdvLCq6gE9/TJmUvgNz20uAQVcddVV6zyIgAShl+f555+/jvfYY4/Vvu0ma8e2RtZeOvHEE6tngFdt007undvDqPL1bSL01ffxwMKtv/765b777qsXhTCSgTxLkHf9kvKOIc8U22CODjmFF4U47rjjyssvv1xpaD8waAdCSI69GWecsb5nQgcEfKS/sVgs7sKpp55aNw2kPohs6Ru5ktr39HVCURK0Rx555Oqftz6jfMwxx6yXI5v8r3/9a+3Pepkvz2kndfIUKE8dg7THHnvUZ+ipD6TOOBRFmJMyOLUpizHx0SpY+Oh8juxS5zto59QWZfn444+rz0/h3UfUGUNbbgyXjq65rCqLS+s5vHimm2jSG/wvsMACZeONNy6jjTZa15iBZxsL3Z122qkaHnxWbRF/ZCUdpRq2HSFlYdLCmuhjjz22XqT0NTAr4WKhrYU3iD7KWHAKoC4TNyho2w+sr/q0wa9LyTLLLFMOPvjgetPHWye0D1+R02bYaKON6j3lj3/8Y42Bi0KQXTtyuTxdfvnltcxGsqFjnULPxZOi33vvveWjjz6q94ITTjih9rVx60L8/8J67g6d5doGPfWB0ERfdIdb6r71xBNPdJ0mQF5o6ULmAsh+2GGH1QseRXWx3GWXXWquzSabbFKtKN+ZUTr55JPr6fn555/3J+Oss85axhlnnPLAAw/US6lLO2NoPkJLeyfW4YcfXl0VrggDZd7MZ/sdopXfaeqknnPOOathgb7COQsvvHAl/NJLL9XCdAwRuWSniQPvtttu9ThyQeVrOnr4o+KZrEP6sVZy7W655ZYuS5/6oB2nE51leW/LW5rJTaicdeWj4U14a5hhhulaNPVB+krqfbxyh+Bv8y1FnVhBm5o7ZrLJZ/K1ZbmcYKxkFAfQtUhk9yHMkSuEiC+bhqWjfA8++GBVupa3VsY8D6wMOvt6F1Sw0fHM0hnTujslRScuuuiirnCdvviIgtsYBx10UG3LnWXUNttssyoXRbzmmmvqOGice+651fUA49IHY6KV9Z977rlr/auvvloVl1V3aeycD+FZ31nwgKZc/zYkmVx5+HWRhWWXXbbqaR9fqUyARUJUY0hHeYQWleByiCDstddeVXkJ5qKlnruTweShpS5HIyQP2veM1yb0eqqTAs9opcwzBecmXHrppV0Tnfr0bxNeXY5dcJ555plqnVzETzrppDLddNOV0UcfvW5Y7bR3sbrrrruqZaTgylo5KYRjW7ncaemLqMX0EYmF5ypS8Jb3wHvK8tyZ2roW4UO5Y54imQN8GM/m9eGG4aK8+CAXZA3xx0BQcIbssssuq1ZaO/MhUJHoCPm5HU5tif9MwcOXPk5z4wPlznxIno3HsutjrdBwn0Pbc6vg+EvynnHcAYHFt3H6uMDYJWK3iZF2dsSc3efouPDCC6tixxVR59kG4V+BsvSH0GnfW+RdH32TCCknoDoT593Ete3SN2OGLzFYE3rooYfWNtCO7Tnvcv1NsmPWxrCR0ZJinUBEIP1SL3XSBorgo1ruJEKJTgLWk/IAa8g1amVJ3sqZ+SB/5xwktX3Dg2eGDHxydyKRUQhRlIWrQD4ntHboAJnMgU3PL+ZacNGUA7pCgDEcPaXAs7lAj1vBcLD8PhoxKDYPWAO0M6fdpcgngXcJnL4gkCJVdwXsENYW0jHEWCMXHdbehCjPhPrKZ7c4Xli1TED6QvKg8z0w0T7b8ve0QQNP4447bj3eWRr+dVwOY7mQ+LmA5/RRR3FYYX64DRiosyjAQrQLqj+/2unm6x9FwpP25sBdJJfHjCWXAmWBcptM3/PPP7/OESVRblyKD7l0BXhR76K15JJLdo0lactvNQcUT9vwIWdpWTLlEN5yUTNf1olcrDkZnXJOafIZj1tnfBaeu3DAAQfUsKs+cUetiZxMcshYnWh5Yb1FuoRc9UVTPbp8d8iaQE80oa3Ls9y6okcv6XdfA4LCENewZdwPq/iRLKKLE6aUSxYRo45efSR01PUW+mhv0o1jcdEILR+X8OkywRLEdzUuq0rJW34l8fCpppqqLp7fT2QMuYsPuCRZSO7H9ddfX8cV3+V+WIDICfxuG8fFkhVqx2vhXT/8Uej4nzfeeGMtjzJrx2IBBWJkMp4cbPZ8rg70Z53MgXVJH8l8iOzkuIbIjR9w5CvzLqljSblblJyMymzM7bbbrtJq5xfwbZ2cSH5Toj1krE6kDK8LLbRQHdcHMu/hS5sY3PxUojtaPaHlj5IzBgyB1JdyQ33pN0nQDoARimIRXEzUhTk+nps0a8A3A/2kQWEy7TDmKE3fjCOMZOe7qcca4rudJHn6yVl+1otF7glOBWDZKLmLisXlg1MmigRosmjgeG5565TTOyijpJTBhT6hQ/Xpow5EXbwbz7iRyWbzKz5IP/V+/0I+Xy1Tp788fcOTMmCclFnntr1kLhM6Tnub0+d37mnnBx2f5G0Gbivray4yXidCT735QNdJkdMiBgusM5A7Y/07MCa69LIaD1YJCN8uaoTCGAvqmPPDowBjwmsmwm62kC1Tg8Jg2srRzUK3OXjWJqdO5+kjhW+njuiBMFKbRIJsVuCDko1/6l7hh0LouVugY/GMjc7KK69c7y0sHvpB+wxZVDnfk9Vzw6cMylIvYsE1MJZFbTdsaMqVSfiQlCW1dcnbvoEx+eJyp0C+EwTKKQRE2WMA/BYHsgH15yYBgwPGQqMdM0id5AQlt37xCALljIzxbOye6PWEtq1T33q6y3EJ+zgqKQurLIEBkotnshouHbkAau8LHqZAvFMdK9gK1Vu040mET8o7tO9tPciNHWFtXhvTkdomYStHNpCJlaK8ZLSA6tw90LHw8e1NGutjQ5MTImuL8CAJr4L5wWv8TwrpZPDRxG8uurvwQ6eskrI2dVefvmiB3GnB9eDPkyl9085mxFcMAN7AHKk3F+Tm4qkzZ48//njtz0C2fLdImXquCohjG9t8KDcub0EEx1dYuqRfd/R6QtpL9FhOXpu2j/CPpCI+YoABu5eAojAmB3PCX6yQCAEGhQ59KHCMRVipt9AneYSW2nc8dJblPX3bMcNDUhbUxOpno7b1KbNg+bLKndh0001r/Fs9CyRezsfPeFIn1AmViUvzL82P/mQwhtOEvyv2zGrhTZ/QlIeOflLqJTSk1He2S9/QQt8pLEbvMuZU0hYN6+unxz6Dcz9YUv24jto4jcCJLhwbY0fBySOmjSZ0NxfK0GGpjUHxhC2VZQzhTfNBwW1G/EJkGRiMEVnBrxVBxKa6UyxeCFvAdAC5aAILRsHFjsXGXdbEyvPTR/FTl7b2mMH84AIr6jYvh/DXiXZSPLcpZSDWTdkd28rI4FizcMpFkPjlvuz5OsjSugewRL4O53tAZG2hTEKH8aBE3B2XYHFbX0aF7fzkwRwaOzS6oxe0MrtrkCFo61q0tIzjl3/i4dtvv329mLto2tC+YnLDRKJAP3cPffDrMqsv18ocGZ+uiERRJIo/MN65O/RIm8wH9wUv3c0H/emJXifSLnlOIQEFqH8ZZIEF4x3VogBhWK7s+eefr1beM4ETZaF4FtNxfNppp9U4drtogwsUhUUUSUmY6ZeMQWmdQiJCbbSIK8JtMZ7FZGldGFkhbpsFdQHmBqVPd3xk3kQlWD0fy1y4hM/QtqD5utgTjQEBTRbXCdNb4IniuB+wpiIzYuIsNVoU3LzgCXJ6WV8unp9w+FGXk87fCnD9KL61Rxu6k0MZmnTD5d7PYp1w5kNkrqf5QDN0B4a01c8JuvPOO9d15Qo6LYbo56b0q/vHRU24ipXOZVR5cpbMbmy/OIHwnkmHTqbS/38BmSRw/MZPNvEWmz8aOVMGbb8WneW+J1joloZ6KfPWHZ1fipaP9tl6MlwMnA0JqW/bUZoYlshtzcmSMm07+wXKgraucz7oFtqhA520uoO2bXuuj7/O8jNvPzfAX5eSE5g7YrdSeDvYoFK7qJjRPu/QCjo4kUlDPzxIKR8UpI889FiRll4rh2forE8ZdMeHMlDu2XzxfYPO+euORndo6aIB+IeB0ejkKbIH3a2pdlLkTx/PoZP6tB8QD6DNrzEf7br4gupS7OfEQdcfMttRfj3nhzciDvmRSwZFKM9hwrvylHmXBjfQJkDG/aXopBe+I0MrU+q7kzP13SH1ad85f72h0RNCY1DRjhd+IPTCU2c7aJUwZW2ftO8ObZv0GVzz0dLw3UCAxLeWeBzKh+x3mdvPi0H5avxe8W9fjXwJy6Ah1Inuyv7X8WvI2dP8/afQW366azM45Ojt+D0hm0ISF/fRz1dpwQL+uPKujdnvotVvrH/uJBXCiXxzP0B36Wg7/I7f8d8ARjmbxCWWBfe7fmXq2pOn/nMhD+nQNgja+t/xO/4bEJ3s1M3or3L4+eefy/8BSjY6G/1N7rUAAAAASUVORK5CYII=;" parent="1" vertex="1">
          <mxGeometry x="392" y="586.23" width="98" height="13.77" as="geometry" />
        </mxCell>
        <mxCell id="hqYTHTNWbjo1vj10XiDc-29" value="Calculating" style="rounded=0;whiteSpace=wrap;html=1;" parent="1" vertex="1">
          <mxGeometry x="670" y="550" width="100" height="50" as="geometry" />
        </mxCell>
        <mxCell id="hqYTHTNWbjo1vj10XiDc-40" style="edgeStyle=orthogonalEdgeStyle;rounded=0;orthogonalLoop=1;jettySize=auto;html=1;entryX=0.5;entryY=0;entryDx=0;entryDy=0;" parent="1" source="hqYTHTNWbjo1vj10XiDc-30" edge="1">
          <mxGeometry relative="1" as="geometry">
            <mxPoint x="721" y="630" as="targetPoint" />
          </mxGeometry>
        </mxCell>
        <mxCell id="hqYTHTNWbjo1vj10XiDc-30" value="" style="shape=image;verticalLabelPosition=bottom;labelBackgroundColor=default;verticalAlign=top;aspect=fixed;imageAspect=0;image=data:image/png,iVBORw0KGgoAAAANSUhEUgAAALkAAAAaCAYAAADrJf0cAAAAAXNSR0IArs4c6QAAAARnQU1BAACxjwv8YQUAAAAJcEhZcwAADsMAAA7DAcdvqGQAABKNSURBVHhe7dwFrKbF1QfwYVnc3d3d3YO7u6V4cQgkuAV3De5ugeDutFDcaYu7u+u3v+n3v519e+/u3bLQNuGfTOZ5Rs6cM3PmzJnzvPcOMdJII/1c+mGIIYaQdcH7zz/Xqor2eUAIHflPP/1URhxxxHLWWWeVaaaZpiyxxBLl/fff/xfavwXCl3E9h4e8Dwo/6Q8rrLBCGXXUUcsLL7xQdt999yrvaqutVj755JP+6KZ9ysxNW/9bIry0SBl+pN7ypl3aTj755GXbbbctTz75ZBluuOHKjjvuWO6+++6y1VZb/Yu8GS9lqW/L5H/4wx/KZJNNVh599NGy+uqrlwUXXLCsu+665c9//nN/7SC0g7wPOcwww+yXxtCnT5/63NmhNwgdNPK+5pprllFGGaUMNdRQ5dprry1ffPFFF1O/FVr58vzvyBeEhpwy33///eX111+vabnllitXX311+eyzz/obN2Mm/SeAn5b37vgbVLT6MvHEE5c//elP5fbbby8PPfRQ+eqrr8raa69drrrqqjof0DleUovwNfzww5cRRhihnHnmmeW5554rN998c1lllVXKDz/8UO65554uGWyQ0Ag/oA76hKBcAx0QXmONNcqUU07ZVd4btMyis/TSS5cff/yxXHfddaXfidFf/W+JzgkYe+yxyzrrrFMmnXTSWp7J6C1Cj4zvvPNOV/+xxhqrXHzxxeWtt97qGkvdGGOMURZZZJGyxRZblCOPPLLMNddctX1v53VwAT/hScI/TDDBBGWppZYqa6211iDPSUvzqaeeKn//+9/L0EMPXYYccsjyxhtvlDfffLN88803tW3GNR+LLrpo2XzzzcvRRx9d5phjjlpuPuSh9/XXX5c777yzlkveX3zxxfLpp5/WetB23nnnLYsvvnh9J1PmVR30CUFJgymmmKIccsghVTlfeeWVrkEHhtAwADoma5555qlWjRWHCAHJf220fIF8zz33LEcddVSZZZZZusoGBS1NyQZ2hG6zzTbl6aef7lIe6Nu3bx3HIuy7775lpZVW6m+RfguE3zbhcfbZZy/nnHNOOf3008t8881XT1lpUBD9gSgY3ZFmmmmmqqQffvhhLdeWLsw888xlscUWK/vtt19Zfvnly5dfftmfjnmW0Eu5fMIJJ6x0WPS2/bPPPlv533vvvav1Dx+RtVryCD311FPXnXXTTTfVIwaj0BLsCdpEWAOx4pdcckndfd99912l5chKu97QDD15mM57b9DZnowsuFMKekunEy3vnocddth6+n3//ffllFNOKbPNNlt/C37HHXeUCy64oM7DI488Uq2Rfr2ZgwCv4RddKRiYHBkrNPC25ZZbVgNEqfm9+++/f7nhhhvKBx980NWnN2jHzjOZJ5lkkjLeeOOVs88+u782XA2Kf95559Vnbo35SJuWTylyKl9xxRXLbbfdVv72t7/V8rSlVwwzt/iII46oawHqtKlKDi5PxxxzTPnLX/5ShWWB0ihtBoS0MYEs+HrrrVct2/HHH1+23nrrMv7441frOcMMM/xj4GaReoJ2ydFt33sD7dJW/+mnn74uqBMKBpVekHlB0/N7771XzjjjjLLhhhtWJbHB2zkjqzlxjPNZKUFv5G/RKYsUDIj/8JHx9Nt1113LPvvsUwMCLorvvvtuXW9t0r7lf2AIb/qgT8ms/xVXXFHefvvtWt7ybxzuijFtesYhbTJu2oYmd48xYTj1S7069Mypk3Laaaet8mV+9K+SK9hhhx2qb+b40kmZ1A7WJm2SOutcwK688sry2muv1aiDSfz222/ru8tIb4EWuKljvt2hA0N4wR+YIG6K+8HDDz9cy0xMJ9Kv7d/KmTxtM8kUmIK7ELXI/IkKeBYl0J7P2tJN6glt/UQTTVQtZTCgfsY0BuB1gw02qFGPW2+9tRx44IFdvLCq6gE9/TJmUvgNz20uAQVcddVV6zyIgAShl+f555+/jvfYY4/Vvu0ma8e2RtZeOvHEE6tngFdt007undvDqPL1bSL01ffxwMKtv/765b777qsXhTCSgTxLkHf9kvKOIc8U22CODjmFF4U47rjjyssvv1xpaD8waAdCSI69GWecsb5nQgcEfKS/sVgs7sKpp55aNw2kPohs6Ru5ktr39HVCURK0Rx555Oqftz6jfMwxx6yXI5v8r3/9a+3Pepkvz2kndfIUKE8dg7THHnvUZ+ipD6TOOBRFmJMyOLUpizHx0SpY+Oh8juxS5zto59QWZfn444+rz0/h3UfUGUNbbgyXjq65rCqLS+s5vHimm2jSG/wvsMACZeONNy6jjTZa15iBZxsL3Z122qkaHnxWbRF/ZCUdpRq2HSFlYdLCmuhjjz22XqT0NTAr4WKhrYU3iD7KWHAKoC4TNyho2w+sr/q0wa9LyTLLLFMOPvjgetPHWye0D1+R02bYaKON6j3lj3/8Y42Bi0KQXTtyuTxdfvnltcxGsqFjnULPxZOi33vvveWjjz6q94ITTjih9rVx60L8/8J67g6d5doGPfWB0ERfdIdb6r71xBNPdJ0mQF5o6ULmAsh+2GGH1QseRXWx3GWXXWquzSabbFKtKN+ZUTr55JPr6fn555/3J+Oss85axhlnnPLAAw/US6lLO2NoPkJLeyfW4YcfXl0VrggDZd7MZ/sdopXfaeqknnPOOathgb7COQsvvHAl/NJLL9XCdAwRuWSniQPvtttu9ThyQeVrOnr4o+KZrEP6sVZy7W655ZYuS5/6oB2nE51leW/LW5rJTaicdeWj4U14a5hhhulaNPVB+krqfbxyh+Bv8y1FnVhBm5o7ZrLJZ/K1ZbmcYKxkFAfQtUhk9yHMkSuEiC+bhqWjfA8++GBVupa3VsY8D6wMOvt6F1Sw0fHM0hnTujslRScuuuiirnCdvviIgtsYBx10UG3LnWXUNttssyoXRbzmmmvqOGice+651fUA49IHY6KV9Z977rlr/auvvloVl1V3aeycD+FZ31nwgKZc/zYkmVx5+HWRhWWXXbbqaR9fqUyARUJUY0hHeYQWleByiCDstddeVXkJ5qKlnruTweShpS5HIyQP2veM1yb0eqqTAs9opcwzBecmXHrppV0Tnfr0bxNeXY5dcJ555plqnVzETzrppDLddNOV0UcfvW5Y7bR3sbrrrruqZaTgylo5KYRjW7ncaemLqMX0EYmF5ypS8Jb3wHvK8tyZ2roW4UO5Y54imQN8GM/m9eGG4aK8+CAXZA3xx0BQcIbssssuq1ZaO/MhUJHoCPm5HU5tif9MwcOXPk5z4wPlznxIno3HsutjrdBwn0Pbc6vg+EvynnHcAYHFt3H6uMDYJWK3iZF2dsSc3efouPDCC6tixxVR59kG4V+BsvSH0GnfW+RdH32TCCknoDoT593Ete3SN2OGLzFYE3rooYfWNtCO7Tnvcv1NsmPWxrCR0ZJinUBEIP1SL3XSBorgo1ruJEKJTgLWk/IAa8g1amVJ3sqZ+SB/5xwktX3Dg2eGDHxydyKRUQhRlIWrQD4ntHboAJnMgU3PL+ZacNGUA7pCgDEcPaXAs7lAj1vBcLD8PhoxKDYPWAO0M6fdpcgngXcJnL4gkCJVdwXsENYW0jHEWCMXHdbehCjPhPrKZ7c4Xli1TED6QvKg8z0w0T7b8ve0QQNP4447bj3eWRr+dVwOY7mQ+LmA5/RRR3FYYX64DRiosyjAQrQLqj+/2unm6x9FwpP25sBdJJfHjCWXAmWBcptM3/PPP7/OESVRblyKD7l0BXhR76K15JJLdo0lactvNQcUT9vwIWdpWTLlEN5yUTNf1olcrDkZnXJOafIZj1tnfBaeu3DAAQfUsKs+cUetiZxMcshYnWh5Yb1FuoRc9UVTPbp8d8iaQE80oa3Ls9y6okcv6XdfA4LCENewZdwPq/iRLKKLE6aUSxYRo45efSR01PUW+mhv0o1jcdEILR+X8OkywRLEdzUuq0rJW34l8fCpppqqLp7fT2QMuYsPuCRZSO7H9ddfX8cV3+V+WIDICfxuG8fFkhVqx2vhXT/8Uej4nzfeeGMtjzJrx2IBBWJkMp4cbPZ8rg70Z53MgXVJH8l8iOzkuIbIjR9w5CvzLqljSblblJyMymzM7bbbrtJq5xfwbZ2cSH5Toj1krE6kDK8LLbRQHdcHMu/hS5sY3PxUojtaPaHlj5IzBgyB1JdyQ33pN0nQDoARimIRXEzUhTk+nps0a8A3A/2kQWEy7TDmKE3fjCOMZOe7qcca4rudJHn6yVl+1otF7glOBWDZKLmLisXlg1MmigRosmjgeG5565TTOyijpJTBhT6hQ/Xpow5EXbwbz7iRyWbzKz5IP/V+/0I+Xy1Tp788fcOTMmCclFnntr1kLhM6Tnub0+d37mnnBx2f5G0Gbivray4yXidCT735QNdJkdMiBgusM5A7Y/07MCa69LIaD1YJCN8uaoTCGAvqmPPDowBjwmsmwm62kC1Tg8Jg2srRzUK3OXjWJqdO5+kjhW+njuiBMFKbRIJsVuCDko1/6l7hh0LouVugY/GMjc7KK69c7y0sHvpB+wxZVDnfk9Vzw6cMylIvYsE1MJZFbTdsaMqVSfiQlCW1dcnbvoEx+eJyp0C+EwTKKQRE2WMA/BYHsgH15yYBgwPGQqMdM0id5AQlt37xCALljIzxbOye6PWEtq1T33q6y3EJ+zgqKQurLIEBkotnshouHbkAau8LHqZAvFMdK9gK1Vu040mET8o7tO9tPciNHWFtXhvTkdomYStHNpCJlaK8ZLSA6tw90LHw8e1NGutjQ5MTImuL8CAJr4L5wWv8TwrpZPDRxG8uurvwQ6eskrI2dVefvmiB3GnB9eDPkyl9085mxFcMAN7AHKk3F+Tm4qkzZ48//njtz0C2fLdImXquCohjG9t8KDcub0EEx1dYuqRfd/R6QtpL9FhOXpu2j/CPpCI+YoABu5eAojAmB3PCX6yQCAEGhQ59KHCMRVipt9AneYSW2nc8dJblPX3bMcNDUhbUxOpno7b1KbNg+bLKndh0001r/Fs9CyRezsfPeFIn1AmViUvzL82P/mQwhtOEvyv2zGrhTZ/QlIeOflLqJTSk1He2S9/QQt8pLEbvMuZU0hYN6+unxz6Dcz9YUv24jto4jcCJLhwbY0fBySOmjSZ0NxfK0GGpjUHxhC2VZQzhTfNBwW1G/EJkGRiMEVnBrxVBxKa6UyxeCFvAdAC5aAILRsHFjsXGXdbEyvPTR/FTl7b2mMH84AIr6jYvh/DXiXZSPLcpZSDWTdkd28rI4FizcMpFkPjlvuz5OsjSugewRL4O53tAZG2hTEKH8aBE3B2XYHFbX0aF7fzkwRwaOzS6oxe0MrtrkCFo61q0tIzjl3/i4dtvv329mLto2tC+YnLDRKJAP3cPffDrMqsv18ocGZ+uiERRJIo/MN65O/RIm8wH9wUv3c0H/emJXifSLnlOIQEFqH8ZZIEF4x3VogBhWK7s+eefr1beM4ETZaF4FtNxfNppp9U4drtogwsUhUUUSUmY6ZeMQWmdQiJCbbSIK8JtMZ7FZGldGFkhbpsFdQHmBqVPd3xk3kQlWD0fy1y4hM/QtqD5utgTjQEBTRbXCdNb4IniuB+wpiIzYuIsNVoU3LzgCXJ6WV8unp9w+FGXk87fCnD9KL61Rxu6k0MZmnTD5d7PYp1w5kNkrqf5QDN0B4a01c8JuvPOO9d15Qo6LYbo56b0q/vHRU24ipXOZVR5cpbMbmy/OIHwnkmHTqbS/38BmSRw/MZPNvEWmz8aOVMGbb8WneW+J1joloZ6KfPWHZ1fipaP9tl6MlwMnA0JqW/bUZoYlshtzcmSMm07+wXKgraucz7oFtqhA520uoO2bXuuj7/O8jNvPzfAX5eSE5g7YrdSeDvYoFK7qJjRPu/QCjo4kUlDPzxIKR8UpI889FiRll4rh2forE8ZdMeHMlDu2XzxfYPO+euORndo6aIB+IeB0ejkKbIH3a2pdlLkTx/PoZP6tB8QD6DNrzEf7br4gupS7OfEQdcfMttRfj3nhzciDvmRSwZFKM9hwrvylHmXBjfQJkDG/aXopBe+I0MrU+q7kzP13SH1ad85f72h0RNCY1DRjhd+IPTCU2c7aJUwZW2ftO8ObZv0GVzz0dLw3UCAxLeWeBzKh+x3mdvPi0H5avxe8W9fjXwJy6Ah1Inuyv7X8WvI2dP8/afQW366azM45Ojt+D0hm0ISF/fRz1dpwQL+uPKujdnvotVvrH/uJBXCiXxzP0B36Wg7/I7f8d8ARjmbxCWWBfe7fmXq2pOn/nMhD+nQNgja+t/xO/4bEJ3s1M3or3L4+eefy/8BSjY6G/1N7rUAAAAASUVORK5CYII=;" parent="1" vertex="1">
          <mxGeometry x="672" y="586.23" width="98" height="13.77" as="geometry" />
        </mxCell>
        <mxCell id="hqYTHTNWbjo1vj10XiDc-32" value="calculating&lt;img height=&quot;27&quot; width=&quot;86&quot; src=&quot;data:image/png;base64,iVBORw0KGgoAAAANSUhEUgAAAFYAAAAbCAYAAADmkHhFAAAAAXNSR0IArs4c6QAAAARnQU1BAACxjwv8YQUAAAAJcEhZcwAADsMAAA7DAcdvqGQAAAkuSURBVGhD7Zp1yJZJF8aP3e6a2LFrYCBid2Ggazcm2IGKGKiofP+oWCiKCcYqiJgYqCgqFjZ2d3dh97e/w14P4+Or7/P6/eEufBcMc98zZ85cc+bMmZn7eRKlS5fus/0fMSNx4sT26dMny5Ili40dO9bmzp1rBw8ejJQLif/OY0aiRIm+SCgkqe6fAHHTszgmSZLkC66hnGTCctXpWfXo6dGjhzVo0MBSpkzpMtFIkGFR+vnzZ08Cs0RS3T8B4ihO4vjx48eIV0lGcpIJ2wGewxwdtWvXthQpUti5c+csadKkXh6NBBk27Eydly1b1urXr+/P8oafjZBfmjRprEyZMtahQwcbP368tWzZ0mXkfeTIVapUyWrVquV1GFjlSiovUKCAlSxZ0pYuXRrRERditoTIhsq6d+9uzZo1s+PHj3+zg58JOBUsWNCNNmTIEDeuykO+PJ84ccIqVqxoo0ePtlSpUkWMSx05oLxt27a2Zs0ae/r0qXttWB/qjcmwCGvWAJ0OHjzYypcvb2PGjLFbt259JfO/IiRJHk5oWBcX5GXIHD161GbOnGkPHjywhw8f2v79+yP1JMaC3PPnz23cuHGWPn16mzx5sqVOndp1qR/kiKmHDh2ys2fP2rt37+z9+/f24sULrwPSCWI+FWgwKGnfvr317dvX2rRpYzdu3PBgTrmU/mzIGEwGnMqVK2fLli2zXbt2WceOHb0MmZCvxpY2bVpbtWqV7du3z70XHZTnzp3b5syZY3fv3rVXr155iMHDMfKsWbNs8+bNEZ2keD0WYSUa/P777zZ06FBbt27dV0YNZZUgphS+8yz9cUHtAUuwSJEiPhgQ1sUHuBET4Ym3AjacUIeMQTkeiAE7d+7sMZf2yGHMlStX2pkzZ+zSpUt2/fp191pW65MnT1xPiHgNK4MB8q5du1qmTJls/fr1/i5S0SRVBzGl8D2UiQvUSWf+/Plt4cKFVrRoUX8P6+KCdNNPsmTJPGSBvXv3ehlLODwhAHGj3c6dO90zBwwY4JNK2aNHj2zevHk2ceJEmzJlik2fPt0nYfHixXbgwIFIfxpPTB4LaMQAmzRpYhcuXLDLly+7Eg0C6FleDCk2DIj06tXLl1m9evWsf//+ljlzZpfHe+NCqBeEz4D6byHkkzNnTitdurR72cmTJ61atWo2adIkNxDHJvWjNuTEYjazUqVK+XJnLHgz42Ki4MxYXr586edYjSHUE7Nhyenk119/9fMbSyNUFBLEGwoXLmzLly+3mjVr2pYtWyx58uQ2bNgwmzBhgh/P2CzUNszDpLIQYXmYVBadFytWzFcYtyNOBlOnTrU6depYu3btbMGCBdapU6eIbDiZ58+fd4PBnzJ544cPH/z52rVrPg68W3VKIKZQoMSZFVy5csVzkSHxLALFixf3c96pU6c8dGzYsMFmz55thQoVck/dtm2bvX379ov2gvSEz4rJyqPrBemRTlLlypW9jL6ZTAzaqFEj+/PPP11fly5dIiss1MX+AfD2X375xetB2IeMrPcQ8RoW0IiNg8MxePz4sedCOEDu0MQfgvuIESOcPIklpM6JdZIPCfEMUSURZ8mFueKjUqgj1MvRqUKFCv7OxkNIYheHGxPNpgNfTRhtlO7du+ft8uTJYxkzZozoDXMlvYeI+z4WBRoRUwgD4PXr1955qEyEevfu7RPQqlUrNwCxiZx4myNHDrtz546dPn3aZYHIYSDCRcOGDS1XrlzeBk9i582ePbsbiWPe1atX/WCOPAa5ffu2b6Rv3rzxd5UDwhEXhD179tiSJUu8HD5MGBsYHvzXcTPCJQQrCg7UwwsZ6QfRbaLfY/ZYCNEBgJggwwAMyjGFpc5BGiLqkGNavnz53FvxeLUJCdEHS49NhaMOiXiI17FJcDWtW7dupA45whPtBPFBLzcuOMCHCaIc7tThKHgiE40BQx4Aw9IG3UwwiJb5HmIyrAjJoHiMoM7IGzdu7AZgs0JWAyS1aNHCB4n3aPBK0sFKGDVqlDVv3txat27tXs/dftCgQX5zGjlypL+TqENu+PDhHiIAetCHV2EQ4isGYuOiPMRvv/3mxt2+fbvLi4uAMeHLODA8iNbxPcTssZDnfgwwnjohpx4SnBqYZQ7RlGtTqFGjhhuBcx8bmgxJrqR35DUYeZIGRp3eScipDJCLT968eX0T5WhIXFW9cpyAiVyxYoWXqZ2A87BC4SxvD+vjQ8wei2E5uwICPgiJZsiQwbJly+ZkOUxTBiGWP2dZYiznSI4x3MNFlJwE9MwkKelddXHVk9Re4LbFbo63wkkeyEQQbjDstGnTIscqoPGgh5hOzs3q2bNnkbpYEa9hRRzF3DAA9+Zo4D0YEqPphkT869atm128eNEHRHtiLZsQ76FuQE6SF4Y5m43eo+VIQLrIOX8CvkQhBz8SFwY+H65du9avrqFRxQdwGQJ8ueP0ILlYEa+0SAM2HnZSzoQYUHV0yqweO3bMj1Ucwjdt2uQfMfj4wYCQ4dZDfGQzAQyCQceFcJAsSVaDNk+guhDwkYFu3rzpnsoHGCaabw188psxY4bH+YEDB3r8BZogIB06Wu7YscPr0SmZWJDkr1jyn7+fvwkNkpljJqtWreozzpIPB8gxiuVH/Dt8+LD/JsQtjbKsWbN67MVLuLVg6FiIIoM+dm9OGsS870F6d+/e7dfS6tWr+ybG9ZQQtmjRIv/ugE7Jagx6Z1PD8Pfv33fvxjFALHyFeD8bhp1ChisiV1U+SPDdUhsUUMcQkwFoR310GbIaVEIIfw/SRU4SL660POsrVNi/gLy4Mhnz58/308jq1asj8iBWrj/0PZZfDriqcoQiuKtj6kWYMoC8ysMyoPK4QB1QOxLtpE910ZBOcvFSf7xTzrtkBJ5JOA/fEHCCfv36fcU5VsQcCkSEdOTIEd8E/vjjD9u6datvLBoE0LPeaROWSY/q4wNyMkYsQDeINqj0RPdPvfT37NnTTzJ8MFIMplw6Y0WCPDY679Onj8dPfvpgmVGW0Jn9mYAvCcNxNm/atKmVKFHCPylyO4x2kITgh/6wEXZYpUoVv09v3LgxMvP/FsAXMA6uzXyj4GMNYwjHIuMnBAkyLB0AOomezbDu3wIZLNpwMuqPj8nsv+TfvdS0B6g2AAAAAElFTkSuQmCC&quot;&gt;" style="rounded=0;whiteSpace=wrap;html=1;" parent="1" vertex="1">
          <mxGeometry x="670" y="470" width="100" height="50" as="geometry" />
        </mxCell>
        <mxCell id="hqYTHTNWbjo1vj10XiDc-43" value="" style="group" parent="1" vertex="1" connectable="0">
          <mxGeometry x="646" y="710" width="148" height="55" as="geometry" />
        </mxCell>
        <mxCell id="hqYTHTNWbjo1vj10XiDc-41" value="Calculating" style="rounded=0;whiteSpace=wrap;html=1;" parent="hqYTHTNWbjo1vj10XiDc-43" vertex="1">
          <mxGeometry width="148" height="55" as="geometry" />
        </mxCell>
        <mxCell id="hqYTHTNWbjo1vj10XiDc-42" value="" style="shape=image;verticalLabelPosition=bottom;labelBackgroundColor=default;verticalAlign=top;aspect=fixed;imageAspect=0;image=data:image/png,iVBORw0KGgoAAAANSUhEUgAAAScAAAAjCAYAAADWvMzjAAAAAXNSR0IArs4c6QAAAARnQU1BAACxjwv8YQUAAAAJcEhZcwAADsMAAA7DAcdvqGQAABtuSURBVHhe7d0FtK5F1QfwQWxELBTsLspusTsxECVc2Chis2zQpQJ2dwuKmNjSIQYYoGLQdiui2MLHb/R/3Pf53ve8zzn33NLzX2vWPO/Enr331J49c+5db8MNNzy3LWMZy1jGWob1Ntpoo+XFaRnLWMZah2XLaYFYb731enzuuef+v2/xuorwH5ngv0GuYNhXk77/l5B+jfyQ34vVxZDmStNbXpzGoyrat3DOOef03+syIpc4WOyAWhtR5asyQvovZf6bMezf853vfP/+9S9Ii57yexZqWd+1DaDfYbtjsbw4jQQF1w7IoNbB6YCFKH5tQZULIkNNXxflCmbJMZT7fwXz6WMxulhqerDi0rmMqYiCKdtitPHGG7e3ve1t7cY3vvFc+roIcuHdIuv75je/eZfr0pe+dM9fV+UKIp/4whe+cNttt93apz71qfbRj3603frWt57LX9flHIPImb6+xS1u0d73vve1Qw45pL3sZS/rfS5d/lh9hKZ6F73oRdvuu+/ePvvZz7bPfOYz7V73utcK9MbSDBa8OKWRBA0LyVsbEN7yHR7XX3/9FXit5VKmpicv38lH5zGPeUy75z3v2Qf86kb4GfKVMBa1zj//+c92sYtdrD3taU9rN7vZzeboGFyrG+Ep35EvvxeC0ELjrne9azvzzDPbS17yknaBC1ygvehFL2qXvOQlu4wpl7LCcLysCVS+EsKf75QZC2XJe41rXKM95CEPaYcddlhfqO93v/u1vffeu8s8Vh8JIP2hD31ou/jFL943t9/97nftjW98Y7vVrW41Ry/lhFo/eUOsf6ELXWjPf3/PBCIZrCHodxpP3tqC8DQMQ9RyQHm+pUfOxKwmg/xqV7ta22CDDdoXvvCFdsYZZ8zRWNWo7YTPxbQbOmjk94Mf/OC20UYb9Yn7yU9+sv3xj3+ck3t1ocqX78XIF4SG2MJ0zDHHtB/96Ec92Fw+/vGPt7POOmuFdtNmwpoAfirvk/hbKOp4ufKVr9y++MUvtkMPPbQdd9xx7U9/+lNfrD72sY91fcCwvYSK8MVqMh/e8Y53tO9+97vt85//fLv//e/f/vGPf7SjjjpqTgbzJzTCD8gb4l8jcyQqoTB105vetN3jHvfo3xnoaxqVPwq7yU1u0nbYYYe2zz77tAc96EG9DF6ViYKs8He84x17HgXWjhSSfs1rXrPd4AY3aPvvv/8cjdWFyBS+8UM+MuEr6WMQmQCdu93tbt16cuTZcMMNV8hfnUi70f9lL3vZtt1227WrXvWqPX2h+g49Mv785z+fq+9Y/oEPfKD99Kc/nWtLnqPN7W53u24Zv/zlL+/jG8bqdamAn/Ak4B+ucIUr9M1x2223XbBOKs1vfetb7eSTT24XvOAFu0X04x//uP3kJz9pf/nLX3rZtEsft7/97dujH/3o9spXvrK7MaTThzj0/vznP7fDDz+8pwt+n3rqqe33v/99zwdlHSXvdKc79d9kil7lDTFa4xqoTAGGt9lmm/bNb35zLm1tAp6uda1r9YXnGc94Rl+gkl759a2zbnnLW7bnP//57SIXucic4uRFgdJNlAMPPLDvwudZnSvkD+kuJdDNQBDwxzTfa6+9+qKyEOstNPCNjkHO18SKYDVB7efEqxqVLxA/5znPaa94xSvaVlttNZe2EFSagoXX8eMJT3hC+/a3vz036eH85z9/b8fk2WOPPdp973vfFSbX6kD4rQGPN7rRjdq73/3ufmQyTlm1wkKQ8QMZ38aOsMUWW/TF5Te/+U1PV9ZY2HLLLdsd7nCHtueee3Yf0tlnn73CGPMtoJd08RWveMVOhwVVy3/nO9/p/D/vec/r1lb4qPIGo3pahdoAgk9/+tP7gH7xi1/cV9xhmZVFZVQcAfI735OAD0GZ448/vp99f/WrX7Vf//rX7Stf+cpcvkAW5f7whz/0ie7MbDJQHKQd5RwDvvrVr7bvfe977W9/+1v7+9//3geIPAjNVQF0I7f2rn3ta/ed7HOf+1w3xQ2wlJuF0AJysppYgnY7cqHFtE+5MTRDTzzsqzEYliejjSCW7lg6Q1TeffMRsjb13Zvf/OZ2wxvesLeFZ3Lzwey7775dD1/72tf67q/eGB0EeA2/6ArBLDnSVmjg7bGPfWzfOIy1nXfeub3gBS/oDmfjOXXGoLadbzJf5SpXaZtuuml717vetUIZRzIL1nvf+97+7fhHHylT+RQip/T73Oc+3dF+0kkn9fSUNa7MM+4DTnh9AfKUqbKMWpwqE5S1/fbb9/MkJVlJ40SrhFcWlZ5Yu/V3vichvAoU41hnMtsps5DWcmgppw07hCPSM5/5zP4bxFe60pXaIx/5yG5Ov/71r++KdeR41rOe1Sd3aIT2UiJ8hvYlLnGJ9qpXvaode+yxfZDa8SPHmPZThlw2mIc97GHdknjta1/bHv/4x7fLX/7yfYHebLPN5uSahfSHeNhXY6Bcyqp//etfv09EFiEslF4QvaDp+5e//GV7+9vf3nbcccc+ufVd1RlZ6cRxh0/G5B0jf8VQFiGYj//wkfbUY/Gz5t/5zne2XXfdtf3iF7/o/V3HWuV/FsKbOuhbHPT/hz/84fazn/2sp1f+teNYp02LtUU9ZdJuyoamY7FNwIanXvLloUenLNPrXve6Xb7oR/3QhJlaTwVBI44Srgs5TDkVLUyIh9lhwExC/e079Cch9cFx6nrXu94Kq+y0ekPgjY8In6wmyGQODbwL0u1Ob3nLW9rDH/7w7oNSXzkOw4985CPd2Wf3+OEPf9h3V4udm4lViegW8POkJz2p+x6Y+XQpLX0AkS0hOo/ea9CH5CLPKaec0gf/X//61/6bzGOBFugrg6721SyEF/yBge04x//FUgUDeojUq/WrnIlTlo6kWXgsTBy1FdHfbW5zm/799a9/vZfPLVXoJUxDzbepsUyC+eppUxuAV26IJz/5ye3ggw/uN4vhhRUjH9DL+Kgh/IbnGgtgvHPL0MOXvvSlngahl29uEe194xvf6HXVC73atj7S94INnCWOV2VTTuw3o8ZmyDVk8UM/bSaeuThVRsWsB04yAyeN1TL1t1ijCfV3LTMJ8kLTzZiJaDeFmjcJoa0d52Y7IegAaVZ/ivQdhDf1dBbnqUXAZJPmLO4mgsXEannd617XFzLvRFgwaW+aPIsFugno0wHL1S2hhREir+A7POS3egn5TX7fFiSDhFxiCxV/2mte85p2+umnz7U7C8qBvnI82HzzzfvvTIT5gI/U1xYLwcJvk6B/SH4Q2VI3ciXU36nLIjS50XZ853+qPhHxZS5zme60tTh///vf7/WH40U5YchTID15xtCzn/3s/g3T6kDytGOCs8pNYuPNJNcmPurCED6G35FdGP4G5VjJbu1srnxaFir+NnnaUNZxz9HXWOOXlZajv+/w4tvYRNO4wb93ZDZ5zzXSZuDbfET3KU95St8w8AmJZ46cENS4gec9BC//aaed1okIKZPvWFMGltWfch/3uMf1dzTMaA/hDALlpw3eShfqN8ifhsoPC8MNA2vHsW7rrbfutzAm453vfOe5dlJHbFfVETqM844sdgtyWezwTBYDxy4fGSqdpUL4i7wPfOADu1XiyDGpvaRlcJmQJsirX/3q7uBV14DRL2RRllwGhzrSWEwmrry0vxDU8rPqyk8Z/NL33e9+9/4Wyc0R3oZQPnxFTmNtp5126n64XXbZpfePWy2yK0cuR/YPfehDPc0CaCGONRB6HOLG5tFHH91++9vfdr+XjUhdC65yyoeHSRimKxtMqwOhib7bQsd3/sQTTjih60E6kBcqXYgugOxupzmeLTAc3vzEYmUe8YhHdKuFb8hm8qY3valbq3yvVUanjstd7nLty1/+ct+gXSbYxOgjtJRnIb70pS/tRzpHNhsLvdGnzS6yVfnNM5Yxt4sNAZSLXKMXJ7GBQ2F2FAO4EtJofltVr3Od6/SBwNPPLDX4+XEI4OkBJaRujWtIWkVNryFpw5jfhKXHmed8a5Le5S536edsnWJAp2xkgDjy8C8tnRCT+gc/+EGXg5WVvASoPCwm1LqgDXJYXH3bHKC2WdvWBxz4zv2uzTnO7YAGq4nPB0cWZdVjHaCrnFsZx7shXRjylpC0ipo+qZwY7cSsGX3EQrUBug3FE1QeUkeQn7HmeMAJayNhdfCb2QyBfCaN/j/iiCO6Zcj5nQkP6JpcdOcCxdHEo1QT3UTeb7/9uhWuzUxeAfI9TAuG+Qk1D/DghtkCjWeWhYXqPe95Tx9rbuuMyegAH77F+DI/3/CGN/TjIB+RJwKPetSjuoFABkd2eP/73983bZYSenRnfluE0KIDdD3IBePdgsPKoVO0XBzQh3JOGt7JKU9faDoOPvWpT+3jLMBz+BUzGiDPkSpmLk4qJOTNB7MN0pAQBVOQHcakOPHEE/sxkNPWzYgJYVcyKCip1g9Cp35nICQe5gehE5oC0xK0bUG0KNktdDZ6dpBYepUWXwzoQDcL8qG2kYUqvyvq7/C5kBDkW3z1q1+9y8EMNxjShjzfqYsnt1wmIL0/97nP7YuOAWlgyXcsVCeDJLTk5QgBiYP6O+3VgN60PCHwjVbSfFuYHKc++MEPdjomSPJTvwa82nwy1vSlsWZy8lFe6lKXagcddFAvpzyHr4WJJcLqlVblZFWylqWLWacPeMAD+nHH401j15HaeKm8B34nLd/DUPMqwod0Y9aYowN8aI/D2oNJGw4XBz7IBelD/FnYnXA4/A844IC+AStHH9wPuW0jv+MZI0PgH7IYhi91WM/aBxtb9CH41h5LSh19hYZ5jbbv+mYKfwl+px2bILCwWLvpK5i5OAGCOs4tFjB3K2pjdmnmnEHmrE1xArMaHXDWTPmkgW/MJWTyE7bGFJEyQqVR6dqJYy4y4e0engHgzaQ1yfGLP/XUSYjSnMkN8tCtcUJ+V+Q3WpXXsSF1hYBjlVXg7U3euKRMeFHX7sVCtdNbkHJkk+fbwubYCtJSH0Kn/q7Ib3XCq5A+0UfyDHi/Y5ElpG7aDF+sNRPBn1AEtW3f+S1W3+RwHNGfFuCMNToKWA+pl3xhSBtMYGM8PjeWgU3K2xyTHhxfHCGrLImrnNEH+Yc6SKh1w4NvGxB4P8gCJKOnBG7tHKnI5xSiHDpAJjqwWPP7OILFBQHoOj1kwZ8WAt90gZ7jlwXfhs4SsxFY9EAfoB2dTgqRTwC/BXB7CtwvQsrAf3pxHqhgVWMyglUxDQZp0HmfUEw8iqBIsQ7l/7B76ewwF6Yp2cS5973v3R9wqWPHsLo7M1to7BaulmPuU4gXvpzzVmm/kw7MfSayXc8klY4fi54Bw5Ka9hraDoAH+fhSJvRhWGcSDdCeZxdkmFamQhssU7ehvlNH7FgHZI2pnD4QK2MTsSlYeA3k6FaehVg/urXUD9FT6kLiYPg7GMqFBp422WSTub5yTKh9NZQrvJnwrB7HTQtnIE8fgP6I7lOf34g16XmH/sxYowNjzaLFBZG2xEIgLZBucVTXJQcdZUPVrgUL4gwO8CKfA5i7IG0JyvLL0IEFQ9nwIWbZ2ASlQ3iLA5m+9BO5zAUysipZxeTTnuOv9llU5twLX/jCPkcyzrWjT8RkEkPaGqLywlriU/X0Ql005aNr7kD6BKbRhJqXb7F+Rc+4NL6l5SQzanFSAWMmKWRiQBXWosTZ6tjG0UWQMOIJgpfIdgCWV62Xb204RulQHYFJAwHjlJT3SnPMn1fe1b4jS4CWIN+ZFw/4MVDUw7s20WQRGcDaqHwApaljUVUPIssYoKW8uo7DBi+eahtDRCa7vUkcGmmXDoAMykLl2zcnv/ZYIPScPhBMPvQt1uoI6IT+GISnSXKJPepMXxkPta+qXBC+dt55576JmHT+vittiDlkgY/DBHRM+/SnP93bdUR3TDNx6lizKVnwWMt2/dpehd/q4c9CFP+Kv6qXnkVIORYCmPjZCFMfLNL5s4xAfdYAHeiX1BHow01hLHSI3PgBRoA0vwV5LBfHUosTGaVZUJ/4xCd2WlW/gG/9xAI0V5SHtDVE0vB629vetrcb31z4UiYbpc1kGq1pqPxlnlnABQit0ZaTCZFFKUQAoTDnNsjA5ABXVqdIF9wyEbBOjCDM6AwO23SiGB2mpUdozFbn5tBFI50GNU3nO7sTnjlb2wM7rgXKC1jlhzxpI+1nkA5pzIfwRPFMc3WTNh/qIEiculX/5INKV10T3OQhl7zQ48Pga7Po0yGoJ4zlDVJuKFfacZ1sp3XzE+sD30O5Uk/M0mItsICmgRUGLAmLEweqScnHpH/0F6DJggD9Xnkbyuk3SLO4mMQuGvKEQH7qyAO3eH5rT7uRySJ55JFH9u/Uk+9mmHxeeSdPfXHqhidpYFORpp9reYEu84Qk5S2q/szEMZ5+UkfgmLaIOTmwdugi7Q0RevLpA12WWawzMofnPOshd9paDLSJrnFZfVTwr2V/BjTMlxDT1gIUAlEEoQ0gg9YKnUYJ4yaAE42fxHk1gkSo+lv5LAiCNDHIy29BuaSBOPzwz3DMUyw/U/ITW0gthhyNkHqBgcFSxDOZhvmzUNvCI37Fs0JkSt1A+6wAwFudjOHNgGKxOA447gbouZU0gPVNnoEE9XsWUlaMbuSqMfhWJvIM5RLCNyvPLST/YA0sX4ss8LGQjf9Fv7Cw0eM7Q8f40zY6nrvwy7Ew0A/qN6iX2AbIynAjlpvk5HNnOEJpy2SsC21oiqUJ+BCkJdS8xLVuoM38rSqri+VeId1EhixSWbg9lYEsnOo7ToKNArSFRm0zSJ7AYiW3erHAA+k2B+1ZkKfRm4Za1lqiP7O+oEU/MGpxUkHlXF/zXUAaEdv5nG1NeM44aSa1o5w3NZRMGFf0TP8IJBYg3xSRkN/Jm5QvpH5AuawFuyeedJjyBDewLU58MnkyAJEHHbud2AAw0JM3FpUnofI8KwzrBo4UJjm5BKhlvUfBN/3HMa28F88GE7gqlsfqGOp/DGp7wpBvMdTfNR/E2o5OLboWVEePGlxf6zsgE6tAX5DRxJPHt4aOCRvflcFuU7IQkxMia0V4EPJQN1fpLFOx8cISczHib8ImXUTAUFZBWg2T8lMXLRCzzhzRuDfIlLopZxHFVxZuvEHmHV2Q21FYHp35G1P1bWyV74qkyXekg7hn6EO6dlnnbgS9WjeW1JtEbxpSXjCOxeQ117QRzFycQkSlHAcobAiTwGJk4YnJxxT2xsIrZEKpz/eUa9BKG8RRwDCm8PwelhMgtMTMWfAvCCiHP8Gg9jjtE5/4RH+3QfGQegJQPtjFTICUG4vwFP7wMDYM6+bbNbCgQ+MDCeTbLemJ1aiP8Owa3K7vEgJtTwjyDkWdKvMYVH6EynN+D/uqlknd2mZ4SMhENCHU0281P2kmWl6iG2uerWSs2fHzD6qlPWEIeS49vCviP6Ef9cmgDdYbf44/cGcl4E2d0BSHjnpC8oWMu+QPy6VuaKHP6vXGituBFagsGvrX33M6iTim2ezVM++UYf0BC9qzjGxSFibyeC+FJkzShTR0WEbasGB4viAtbXCV0IeFySKaeRFZZkEbkRVcfoETVY6dwcwZVxv1BAABTmmLUPIQjBnNx+ChGye1q88DDjigK1YZJrdVl4MNooxJiBBgJ2SViYPkVeBHkMdxaGd1brZYuib22teVKL+Xx2T8UYCHyBIanLlgQMpHM2VWJ9Im/bEwMiBMvKojMec+i8HC5O2PPuBE9mwi/4SF9y+cydUcn9YHi8Gwr8LfEFWXvmtIGri0sEixvKWRgflvwkln/fI78VV6Tc2yMQbt/Pycec8VWSukCehY9E1+Y5Rz3rsbL8mNYX9NQIfaDo1J9IIqsxMFGYKaV1Fpace/BOA9k7+mcGHAAW4htrGaZ242QT2nA3Xwy8muriMoHWnfWHGzaQGwYM3i3SnDOFIm+nASwcskfdT5MwsplzhWn4uOIONx1L+EiWGBBcGi0PEsjwga2J3t6jrZzQwFci5Ks+Izs1krzPXa0fNBGfSY9EzMmNXTELoGpQ7y4tdq76bKcTSdjmbKRob8trtYvLzBMBgsrjCG36XGkDcTk//OwutWSX5kkMa/xqrybaDm1s6CYRI6trz1rW/t75DG9sFCQK8sEP2f6+aVaUN/G1c2lHr7aCw53mnPJGTZGGt2fcdbE5Fj3nExdSbxEb255WJleKRqQ3ONjraJ6Pg0H435gCYLh0U3FngyQfm/WC9u+hgELCO0zCt6wRPEWtS/5hbjwKUUy5JbxRHZuNf3GU+T5JCGprHh0sE/b8KipA/zZ5o+0AzdWUhZ9VisXpDrV0dm1lnK9Pi8AvNqOwUxgzkK8qcCHqX584A4vSECm9xZRNSTP0yrgqXeyiK0xEL4cu3p2+IKtf1A+fBqQXM76E8X7MYpD0vF60IRmbRvwXFtzSqKk7zyx3LQL8PbD9auyQJJC9aUXItB9ACTxhp/S+RMGtR6FcN0m5gJWmnIF6K3SXRWFpWP+q0/bTg2JgspJL+WM9mzIURufU6WpCk7rBdIC2reUB+Z86EDQ1qToGwtz2jwr5H653oYO+Ev+aP/a6gQxhRHm/M9s5kTK0TliwVpoHzSaxokfRLkQeoJ6oVe8oYITXH4Snt+S/c7ZQLfggXY61cD3tl6yPOaQPgU49tAdWyzO1qo7JjRTfQEBlGVH6ITYSkR3tAPD0LSF4LUEYeefqn0qhy+YZifNJjEhzSQ7pu+YiXDUH+TaExCpYsG4B9m0RjyFNmDSX2qnBD5U8d36CQ/5efjAZRZFfqo/eLFOXeQvwMMlAnN0cc6FcSCv+TmWPYnBxxmnG0aDdF857c6NS10kj8LyhFmbHm0IUrUdtqTNmxffuh7j8IUdnUdn5T00FxTSPtiO5g+cNnguJs/noxMVd7I6PekPlhqoL2QvpqFIb3wHRmqTMmfJGfyJyH5KT/U3xga0xAaC0VtL/xA6IWnYTnIuJeXtFon5SehlkmdpdJHpWGeubjxVi4WfvKC0f/7CsI1dh42id36OAczN2vjQ0xKW12YxhN+KV4eh6srY6+LOVedg+eTZ3UjvACe+SL4dbxfsoi6AEj+NJ7XBjmWGqtCzmn6W1MYy8+kMkshx9j2p8HYTfCuyWPb4TyrC2qwqP/xNxNa8IbGWTdP/tPIugD8Ajk8+nOj5U8eyFBlobCV6ZylQvgQp0NdNvA9uUnlDE36MpaxtiDrBXCus5j4raXNN88WtDipDCEqDrGat64gyhgqJQpbG2WqvNaODYayLGMZaxqLnWdTF6dKMJUnQQOwru/WkYPMQyWtzUj/rGt8L+N/E2PGa/IWdaxbxjKWsYxVjamLU0wu70j8wei6bhktYxnLWDfg8fTZZ5/d/g+Jqa1RDf3BuQAAAABJRU5ErkJggg==;" parent="hqYTHTNWbjo1vj10XiDc-43" vertex="1">
          <mxGeometry x="5" y="40" width="126.39" height="15" as="geometry" />
        </mxCell>
        <mxCell id="hqYTHTNWbjo1vj10XiDc-54" style="edgeStyle=orthogonalEdgeStyle;rounded=0;orthogonalLoop=1;jettySize=auto;html=1;" parent="1" source="hqYTHTNWbjo1vj10XiDc-46" target="hqYTHTNWbjo1vj10XiDc-52" edge="1">
          <mxGeometry relative="1" as="geometry" />
        </mxCell>
        <mxCell id="hqYTHTNWbjo1vj10XiDc-46" value="&lt;p style=&quot;line-height: 10%;&quot;&gt;&lt;font style=&quot;font-size: 12px;&quot;&gt;Calculating&lt;/font&gt;&lt;/p&gt;" style="rounded=0;whiteSpace=wrap;html=1;" parent="1" vertex="1">
          <mxGeometry x="390" y="630" width="100" height="50" as="geometry" />
        </mxCell>
        <mxCell id="hqYTHTNWbjo1vj10XiDc-47" value="" style="shape=image;verticalLabelPosition=bottom;labelBackgroundColor=default;verticalAlign=top;aspect=fixed;imageAspect=0;image=data:image/png,iVBORw0KGgoAAAANSUhEUgAAAG8AAAAcCAYAAABvc+EPAAAAAXNSR0IArs4c6QAAAARnQU1BAACxjwv8YQUAAAAJcEhZcwAADsMAAA7DAcdvqGQAAAp2SURBVGhD7Zp1qJVPE8fH7u7u7u5uUexuVETBAhvswPrDbrEVFAOxAxW7u7G7u+v9fcZ3Dut5zz2ec733/SHcLyzPPruzsxO7M7vPOZHixYv3Q0KBSJEi6fPHjx8SOXJkT53i9gUDxtl4t3z//l0LdZcuR44c0qRJE3n27JnUrVtXUqRIIY0bN5YbN254aIKVIVCYLL7k/fbtm6fdpeGJrdAladKksmHDBrl586a0bNnSo18w8v60eijAJCaUGdcmtr5gYILbE34Y4evXr1oHLn/w+fNnmTlzpsyYMUM6deqkhsmVK5enH17hAZOR4ktet92t2yKPFi2aNG3aVB4+fCivX7/WvtAgVM5DGCtMnChRIilQoIDEjBnzl/5g4K1kunTppHTp0tKqVSvJnj270tBOv5Xr16/L06dPPX2HDx+Ws2fP6juAJjwAX1f/GDFiSLZs2aRKlSrSvHlzSZIkidIhk9GYPXAyUQK5Dxw4ILFjxw61nEE7zxWGwiqaMGGCzJs3T9KkSeOhMWEDhdFHjRpVqlWrJj179pSFCxfKiBEjJG7cuJ5+403BOJSUKVNKjx49ZO/evXL79u1fnBwesPlBwoQJpUGDBjJo0CC1QceOHbXdndvocVzevHklT548GjJxOu3obPzsGQiCch6MzXEAYQhXtWrVkjhx4kiUKFG03ehCA8bt2rVLlixZospdunRJzp8/r+1usTlixYoljRo1kjJlysjgwYOlUqVKnn6c6A/QmC5Wd9/9weR4+/atrFmzRnbs2CHRo0eX/fv3aw62uV1Z6UfOuXPnyvv37+XLly/y8ePH/wm1gSIo59kECIbjihUrJm3btvUIYghGAIMrPLmMsMmKJLR8+vTJYwxoKMzP88OHDzJ9+nSpV6+eJv8OHTooj0BkcOms7r6HBKMzOZA3d+7c2nfy5Eltt91PHVDnYFKhQgWpUaOGdO7cWQoXLqzhllDL4nfpA0HAzoOpFSYhXPTv319WrVqliZdd4gs2BqAQuxOnUKedd6sDeINy5crp88iRI9rPGAsvpiSGA+SNJ0+eyNKlSz2hCBrjFRKgs3mRw8YCe/qCS8Mc/5zYpVSpUvL8+XM5ffq0tnvrxRMns9gqVqwoxYsXl1SpUqkdCxUqpLvS9AoUATnPhDRgtN69e8u9e/dk0aJFnoOKN2wcBUUY554gaefd6lbix4+vzsMhV69e1X4UZ3dTh5fLk50PyH2ELfqYOxBDwAPUqVNHFixYoPk1ELj8OeFmzpxZLly4oDZBJqKFt27Lly/XnEh0YOdt3rxZTpw4oZvgxYsXyg/6QPFb58HQNQbMa9asKSVKlJAxY8aogKwyaFy448zIGIZ7GHkSQ3PYqVy5suc0CR/oCUEZMmSQo0ePaijkvXXr1hoaWanwgg4+ixcv1rCDQWjHQMxn8/sDNBTA7kmbNq3HmdbuC6aX1YsWLaq67NmzRxcYC69NmzaqG/ygMZncObEHC9Xgb05f+K3zzAAwpp46dWrp3r27TJkyRR49eqS7Dgd6T2wKUjBq1apVNcSSsJMnT67G5oQ2f/58vWZAZ4sA5XmeOnVKT50rVqyQcePG6X2O3ZEpUybtJx/iYMIpq37WrFl6BKfPij+4NDzRw30PCaYrehHuWMg4jZPu1KlTZc6cOTJ27Fg9LU+cOFEPVfBzbUSdXN2nTx+tU7xpfge/zjOm7mpkix87dkw2bdqk7d6OszFWUJALKUqRkwi37Nhbt25pCHnz5o2cO3dOBccAOAJjEFq555EX+vXrp1cBxpAr2rdvr3Mzzvhyx3v37p1npfsylj2hoXjXgb8+nlYHzMH1qGDBgprLiAyPHz/WkIjzCJ3NmjWT2rVrK62NsUKI5a7qtlEChV/nuYxwQosWLfQUOGnSJN0lAOUM3soxhuTMPXD27NmybNkyz6Hj5cuXyuPy5cty7do15QN91qxZ9bMXc3MXGjBggGzdulVWr14tkydP1nbuSqxmxlioNSPDw+Rw5bc6T2isWB4lp9KHE9x+ijuWAm/AM1++fPqpiy8l6Dhy5EjZt2+fLiquEAAak8kKQGZv+wUDv84DMEQB8hL5aujQoZpcLRlzWDAFXcUBSg0bNkzvaoQ8V1D7CnH8+HE1HE4FHJ8TJ06sjiNc4hz6GGvfLA02L3ANa3UXNo4jeZEiRfR0WLJkSQ3jnPZYMJxa2e3sfOvnnTAN4OHyp0ADpk2bphEJWcl/yEukMEDrLZtrK2DtgeKnxUKAGRuBCHdMlCVLFsmfP79nYhIuBkHg+vXrayggDxH/CZfcY7p166YOgp8Jy+4B5C2UIkzSz90RrF271mNwxqCYJff79+/rQrF+V+mQDGCGIwyPGjVKF4jRshDhzaGFcGftPFk87Hpyrs0HTPfy5ctrnt29e7fKzxizDfzA3bt3dazpHlbw+6uCGZtdsnHjRg2ZgQBnQU/4AJYLMASG4lS3fv16rXNy5YsESnOQwWksBg44tKM0BdpevXpJ3759ZeDAgXrKhJ8Z63cw57HI+PWBBWnO4SsHX2lYbF26dNE8bI6g/9WrV3qHM+cZLxYaoZEjf9euXVVG62McBygu5OQ8vrm6izcs4HfnAYQhnnMq4piOgNaOIKy+IUOG6KmLVXvnzh0NhexOnI0zuK+ZUpR27dqpo1jRrlEIXVwR1q1bp44zMIZTLQ598OCBbNu27Rd+gcDoyHHsBG8gI7ufq4ndG70BD5OVOiGXdz4kMNYWE23p06fXXbl9+3b9vGfyhiX85jycw4QozC4iD7HKKJw2t2zZonWUxal830NYHEKSBhgbsNKhwQGEV4DSzGGrnJWMkly0AXVbrRx8yE0cWviiY8YI1CDQ2xOeFIzNoqOOfMDe6TM6CmCszUsbeRHbkOusj4K83D3Z5cjLO+1hDb/Oswl5uoq4xX7SwDF2AoQeI4BkyZKp8OS86tWr67c9chYO53jPe86cOXUc/exynGqOYUWzS/nozE61S7j1B2oUaO2JPFaQ230PqdhY5uPJAY4rwpkzZ7TQhqzwK1u2rF5nhg8frp/LkNfGhyX8Os8FE7vF2gDhlIJipiiftQC5hNVH/Od3rJUrV2rOQ8mGDRvqBZ1TGeMTJEigVwhzPgsD5/JTy8GDBzXfGX9ghgwtGE8BfNckBdi7PV0YPYWTNDuLfIicjEd+fn8cPXq0jB8/Xj8duo7zxfNPEOWfSYf9tx40EAgF+K6HA7iPkewRklMnB4+MGTOqs1idrEScw+91hKkrV67ofYhdyIWWXMZnM0IOR3B+auLJ/RA6HI4xXAeGBdCDQxkLZufOnRoKfQG9zAnk9kOHDmko56DDJzJ+10NXnMeBzZz1JwvMH0L9H5aQ4C0w4QWHWu4DfGLD6XYPcsMgwIE4nVV98eJFbYMvBceFt1F+B+Z35+bDAjuRdMAVCfgK7WEt7x/9AckEI7kDdoYJ6C2wKQO829wxtMHHwDuw3RaWhnB5MQ/vzMM7de85vOf2lg24bUYPwkJeb4TrzqPuvnsrbW0hjQG+aP5tBCpveMsa5s6LwP8PP7dABP5KRDjvL0aE8/5iRDjvr4XIfwBsbqRtUxYo6AAAAABJRU5ErkJggg==;" parent="1" vertex="1">
          <mxGeometry x="405" y="662.9799999999999" width="67.5" height="17.02" as="geometry" />
        </mxCell>
        <mxCell id="hqYTHTNWbjo1vj10XiDc-50" style="edgeStyle=orthogonalEdgeStyle;rounded=0;orthogonalLoop=1;jettySize=auto;html=1;entryX=0.5;entryY=0;entryDx=0;entryDy=0;" parent="1" source="hqYTHTNWbjo1vj10XiDc-48" target="hqYTHTNWbjo1vj10XiDc-41" edge="1">
          <mxGeometry relative="1" as="geometry" />
        </mxCell>
        <mxCell id="hqYTHTNWbjo1vj10XiDc-48" value="&lt;p style=&quot;line-height: 10%;&quot;&gt;&lt;font style=&quot;font-size: 12px;&quot;&gt;Calculating&lt;/font&gt;&lt;/p&gt;" style="rounded=0;whiteSpace=wrap;html=1;" parent="1" vertex="1">
          <mxGeometry x="670" y="630" width="100" height="50" as="geometry" />
        </mxCell>
        <mxCell id="hqYTHTNWbjo1vj10XiDc-49" value="" style="shape=image;verticalLabelPosition=bottom;labelBackgroundColor=default;verticalAlign=top;aspect=fixed;imageAspect=0;image=data:image/png,iVBORw0KGgoAAAANSUhEUgAAAG8AAAAcCAYAAABvc+EPAAAAAXNSR0IArs4c6QAAAARnQU1BAACxjwv8YQUAAAAJcEhZcwAADsMAAA7DAcdvqGQAAAp2SURBVGhD7Zp1qJVPE8fH7u7u7u5uUexuVETBAhvswPrDbrEVFAOxAxW7u7G7u+v9fcZ3Dut5zz2ec733/SHcLyzPPruzsxO7M7vPOZHixYv3Q0KBSJEi6fPHjx8SOXJkT53i9gUDxtl4t3z//l0LdZcuR44c0qRJE3n27JnUrVtXUqRIIY0bN5YbN254aIKVIVCYLL7k/fbtm6fdpeGJrdAladKksmHDBrl586a0bNnSo18w8v60eijAJCaUGdcmtr5gYILbE34Y4evXr1oHLn/w+fNnmTlzpsyYMUM6deqkhsmVK5enH17hAZOR4ktet92t2yKPFi2aNG3aVB4+fCivX7/WvtAgVM5DGCtMnChRIilQoIDEjBnzl/5g4K1kunTppHTp0tKqVSvJnj270tBOv5Xr16/L06dPPX2HDx+Ws2fP6juAJjwAX1f/GDFiSLZs2aRKlSrSvHlzSZIkidIhk9GYPXAyUQK5Dxw4ILFjxw61nEE7zxWGwiqaMGGCzJs3T9KkSeOhMWEDhdFHjRpVqlWrJj179pSFCxfKiBEjJG7cuJ5+403BOJSUKVNKjx49ZO/evXL79u1fnBwesPlBwoQJpUGDBjJo0CC1QceOHbXdndvocVzevHklT548GjJxOu3obPzsGQiCch6MzXEAYQhXtWrVkjhx4kiUKFG03ehCA8bt2rVLlixZospdunRJzp8/r+1usTlixYoljRo1kjJlysjgwYOlUqVKnn6c6A/QmC5Wd9/9weR4+/atrFmzRnbs2CHRo0eX/fv3aw62uV1Z6UfOuXPnyvv37+XLly/y8ePH/wm1gSIo59kECIbjihUrJm3btvUIYghGAIMrPLmMsMmKJLR8+vTJYwxoKMzP88OHDzJ9+nSpV6+eJv8OHTooj0BkcOms7r6HBKMzOZA3d+7c2nfy5Eltt91PHVDnYFKhQgWpUaOGdO7cWQoXLqzhllDL4nfpA0HAzoOpFSYhXPTv319WrVqliZdd4gs2BqAQuxOnUKedd6sDeINy5crp88iRI9rPGAsvpiSGA+SNJ0+eyNKlSz2hCBrjFRKgs3mRw8YCe/qCS8Mc/5zYpVSpUvL8+XM5ffq0tnvrxRMns9gqVqwoxYsXl1SpUqkdCxUqpLvS9AoUATnPhDRgtN69e8u9e/dk0aJFnoOKN2wcBUUY554gaefd6lbix4+vzsMhV69e1X4UZ3dTh5fLk50PyH2ELfqYOxBDwAPUqVNHFixYoPk1ELj8OeFmzpxZLly4oDZBJqKFt27Lly/XnEh0YOdt3rxZTpw4oZvgxYsXyg/6QPFb58HQNQbMa9asKSVKlJAxY8aogKwyaFy448zIGIZ7GHkSQ3PYqVy5suc0CR/oCUEZMmSQo0ePaijkvXXr1hoaWanwgg4+ixcv1rCDQWjHQMxn8/sDNBTA7kmbNq3HmdbuC6aX1YsWLaq67NmzRxcYC69NmzaqG/ygMZncObEHC9Xgb05f+K3zzAAwpp46dWrp3r27TJkyRR49eqS7Dgd6T2wKUjBq1apVNcSSsJMnT67G5oQ2f/58vWZAZ4sA5XmeOnVKT50rVqyQcePG6X2O3ZEpUybtJx/iYMIpq37WrFl6BKfPij+4NDzRw30PCaYrehHuWMg4jZPu1KlTZc6cOTJ27Fg9LU+cOFEPVfBzbUSdXN2nTx+tU7xpfge/zjOm7mpkix87dkw2bdqk7d6OszFWUJALKUqRkwi37Nhbt25pCHnz5o2cO3dOBccAOAJjEFq555EX+vXrp1cBxpAr2rdvr3Mzzvhyx3v37p1npfsylj2hoXjXgb8+nlYHzMH1qGDBgprLiAyPHz/WkIjzCJ3NmjWT2rVrK62NsUKI5a7qtlEChV/nuYxwQosWLfQUOGnSJN0lAOUM3soxhuTMPXD27NmybNkyz6Hj5cuXyuPy5cty7do15QN91qxZ9bMXc3MXGjBggGzdulVWr14tkydP1nbuSqxmxlioNSPDw+Rw5bc6T2isWB4lp9KHE9x+ijuWAm/AM1++fPqpiy8l6Dhy5EjZt2+fLiquEAAak8kKQGZv+wUDv84DMEQB8hL5aujQoZpcLRlzWDAFXcUBSg0bNkzvaoQ8V1D7CnH8+HE1HE4FHJ8TJ06sjiNc4hz6GGvfLA02L3ANa3UXNo4jeZEiRfR0WLJkSQ3jnPZYMJxa2e3sfOvnnTAN4OHyp0ADpk2bphEJWcl/yEukMEDrLZtrK2DtgeKnxUKAGRuBCHdMlCVLFsmfP79nYhIuBkHg+vXrayggDxH/CZfcY7p166YOgp8Jy+4B5C2UIkzSz90RrF271mNwxqCYJff79+/rQrF+V+mQDGCGIwyPGjVKF4jRshDhzaGFcGftPFk87Hpyrs0HTPfy5ctrnt29e7fKzxizDfzA3bt3dazpHlbw+6uCGZtdsnHjRg2ZgQBnQU/4AJYLMASG4lS3fv16rXNy5YsESnOQwWksBg44tKM0BdpevXpJ3759ZeDAgXrKhJ8Z63cw57HI+PWBBWnO4SsHX2lYbF26dNE8bI6g/9WrV3qHM+cZLxYaoZEjf9euXVVG62McBygu5OQ8vrm6izcs4HfnAYQhnnMq4piOgNaOIKy+IUOG6KmLVXvnzh0NhexOnI0zuK+ZUpR27dqpo1jRrlEIXVwR1q1bp44zMIZTLQ598OCBbNu27Rd+gcDoyHHsBG8gI7ufq4ndG70BD5OVOiGXdz4kMNYWE23p06fXXbl9+3b9vGfyhiX85jycw4QozC4iD7HKKJw2t2zZonWUxal830NYHEKSBhgbsNKhwQGEV4DSzGGrnJWMkly0AXVbrRx8yE0cWviiY8YI1CDQ2xOeFIzNoqOOfMDe6TM6CmCszUsbeRHbkOusj4K83D3Z5cjLO+1hDb/Oswl5uoq4xX7SwDF2AoQeI4BkyZKp8OS86tWr67c9chYO53jPe86cOXUc/exynGqOYUWzS/nozE61S7j1B2oUaO2JPFaQ230PqdhY5uPJAY4rwpkzZ7TQhqzwK1u2rF5nhg8frp/LkNfGhyX8Os8FE7vF2gDhlIJipiiftQC5hNVH/Od3rJUrV2rOQ8mGDRvqBZ1TGeMTJEigVwhzPgsD5/JTy8GDBzXfGX9ghgwtGE8BfNckBdi7PV0YPYWTNDuLfIicjEd+fn8cPXq0jB8/Xj8duo7zxfNPEOWfSYf9tx40EAgF+K6HA7iPkewRklMnB4+MGTOqs1idrEScw+91hKkrV67ofYhdyIWWXMZnM0IOR3B+auLJ/RA6HI4xXAeGBdCDQxkLZufOnRoKfQG9zAnk9kOHDmko56DDJzJ+10NXnMeBzZz1JwvMH0L9H5aQ4C0w4QWHWu4DfGLD6XYPcsMgwIE4nVV98eJFbYMvBceFt1F+B+Z35+bDAjuRdMAVCfgK7WEt7x/9AckEI7kDdoYJ6C2wKQO829wxtMHHwDuw3RaWhnB5MQ/vzMM7de85vOf2lg24bUYPwkJeb4TrzqPuvnsrbW0hjQG+aP5tBCpveMsa5s6LwP8PP7dABP5KRDjvL0aE8/5iRDjvr4XIfwBsbqRtUxYo6AAAAABJRU5ErkJggg==;" parent="1" vertex="1">
          <mxGeometry x="687.25" y="662.9799999999999" width="67.5" height="17.02" as="geometry" />
        </mxCell>
        <mxCell id="hqYTHTNWbjo1vj10XiDc-51" value="" style="group" parent="1" vertex="1" connectable="0">
          <mxGeometry x="367" y="710" width="148" height="55" as="geometry" />
        </mxCell>
        <mxCell id="hqYTHTNWbjo1vj10XiDc-52" value="Calculating" style="rounded=0;whiteSpace=wrap;html=1;" parent="hqYTHTNWbjo1vj10XiDc-51" vertex="1">
          <mxGeometry x="-1" width="148" height="55" as="geometry" />
        </mxCell>
        <mxCell id="hqYTHTNWbjo1vj10XiDc-53" value="" style="shape=image;verticalLabelPosition=bottom;labelBackgroundColor=default;verticalAlign=top;aspect=fixed;imageAspect=0;image=data:image/png,iVBORw0KGgoAAAANSUhEUgAAAScAAAAjCAYAAADWvMzjAAAAAXNSR0IArs4c6QAAAARnQU1BAACxjwv8YQUAAAAJcEhZcwAADsMAAA7DAcdvqGQAABtuSURBVHhe7d0FtK5F1QfwQWxELBTsLspusTsxECVc2Chis2zQpQJ2dwuKmNjSIQYYoGLQdiui2MLHb/R/3Pf53ve8zzn33NLzX2vWPO/Enr331J49c+5db8MNNzy3LWMZy1jGWob1Ntpoo+XFaRnLWMZah2XLaYFYb731enzuuef+v2/xuorwH5ngv0GuYNhXk77/l5B+jfyQ34vVxZDmStNbXpzGoyrat3DOOef03+syIpc4WOyAWhtR5asyQvovZf6bMezf853vfP/+9S9Ii57yexZqWd+1DaDfYbtjsbw4jQQF1w7IoNbB6YCFKH5tQZULIkNNXxflCmbJMZT7fwXz6WMxulhqerDi0rmMqYiCKdtitPHGG7e3ve1t7cY3vvFc+roIcuHdIuv75je/eZfr0pe+dM9fV+UKIp/4whe+cNttt93apz71qfbRj3603frWt57LX9flHIPImb6+xS1u0d73vve1Qw45pL3sZS/rfS5d/lh9hKZ6F73oRdvuu+/ePvvZz7bPfOYz7V73utcK9MbSDBa8OKWRBA0LyVsbEN7yHR7XX3/9FXit5VKmpicv38lH5zGPeUy75z3v2Qf86kb4GfKVMBa1zj//+c92sYtdrD3taU9rN7vZzeboGFyrG+Ep35EvvxeC0ELjrne9azvzzDPbS17yknaBC1ygvehFL2qXvOQlu4wpl7LCcLysCVS+EsKf75QZC2XJe41rXKM95CEPaYcddlhfqO93v/u1vffeu8s8Vh8JIP2hD31ou/jFL943t9/97nftjW98Y7vVrW41Ry/lhFo/eUOsf6ELXWjPf3/PBCIZrCHodxpP3tqC8DQMQ9RyQHm+pUfOxKwmg/xqV7ta22CDDdoXvvCFdsYZZ8zRWNWo7YTPxbQbOmjk94Mf/OC20UYb9Yn7yU9+sv3xj3+ck3t1ocqX78XIF4SG2MJ0zDHHtB/96Ec92Fw+/vGPt7POOmuFdtNmwpoAfirvk/hbKOp4ufKVr9y++MUvtkMPPbQdd9xx7U9/+lNfrD72sY91fcCwvYSK8MVqMh/e8Y53tO9+97vt85//fLv//e/f/vGPf7SjjjpqTgbzJzTCD8gb4l8jcyQqoTB105vetN3jHvfo3xnoaxqVPwq7yU1u0nbYYYe2zz77tAc96EG9DF6ViYKs8He84x17HgXWjhSSfs1rXrPd4AY3aPvvv/8cjdWFyBS+8UM+MuEr6WMQmQCdu93tbt16cuTZcMMNV8hfnUi70f9lL3vZtt1227WrXvWqPX2h+g49Mv785z+fq+9Y/oEPfKD99Kc/nWtLnqPN7W53u24Zv/zlL+/jG8bqdamAn/Ak4B+ucIUr9M1x2223XbBOKs1vfetb7eSTT24XvOAFu0X04x//uP3kJz9pf/nLX3rZtEsft7/97dujH/3o9spXvrK7MaTThzj0/vznP7fDDz+8pwt+n3rqqe33v/99zwdlHSXvdKc79d9kil7lDTFa4xqoTAGGt9lmm/bNb35zLm1tAp6uda1r9YXnGc94Rl+gkl759a2zbnnLW7bnP//57SIXucic4uRFgdJNlAMPPLDvwudZnSvkD+kuJdDNQBDwxzTfa6+9+qKyEOstNPCNjkHO18SKYDVB7efEqxqVLxA/5znPaa94xSvaVlttNZe2EFSagoXX8eMJT3hC+/a3vz036eH85z9/b8fk2WOPPdp973vfFSbX6kD4rQGPN7rRjdq73/3ufmQyTlm1wkKQ8QMZ38aOsMUWW/TF5Te/+U1PV9ZY2HLLLdsd7nCHtueee3Yf0tlnn73CGPMtoJd08RWveMVOhwVVy3/nO9/p/D/vec/r1lb4qPIGo3pahdoAgk9/+tP7gH7xi1/cV9xhmZVFZVQcAfI735OAD0GZ448/vp99f/WrX7Vf//rX7Stf+cpcvkAW5f7whz/0ie7MbDJQHKQd5RwDvvrVr7bvfe977W9/+1v7+9//3geIPAjNVQF0I7f2rn3ta/ed7HOf+1w3xQ2wlJuF0AJysppYgnY7cqHFtE+5MTRDTzzsqzEYliejjSCW7lg6Q1TeffMRsjb13Zvf/OZ2wxvesLeFZ3Lzwey7775dD1/72tf67q/eGB0EeA2/6ArBLDnSVmjg7bGPfWzfOIy1nXfeub3gBS/oDmfjOXXGoLadbzJf5SpXaZtuuml717vetUIZRzIL1nvf+97+7fhHHylT+RQip/T73Oc+3dF+0kkn9fSUNa7MM+4DTnh9AfKUqbKMWpwqE5S1/fbb9/MkJVlJ40SrhFcWlZ5Yu/V3vichvAoU41hnMtsps5DWcmgppw07hCPSM5/5zP4bxFe60pXaIx/5yG5Ov/71r++KdeR41rOe1Sd3aIT2UiJ8hvYlLnGJ9qpXvaode+yxfZDa8SPHmPZThlw2mIc97GHdknjta1/bHv/4x7fLX/7yfYHebLPN5uSahfSHeNhXY6Bcyqp//etfv09EFiEslF4QvaDp+5e//GV7+9vf3nbcccc+ufVd1RlZ6cRxh0/G5B0jf8VQFiGYj//wkfbUY/Gz5t/5zne2XXfdtf3iF7/o/V3HWuV/FsKbOuhbHPT/hz/84fazn/2sp1f+teNYp02LtUU9ZdJuyoamY7FNwIanXvLloUenLNPrXve6Xb7oR/3QhJlaTwVBI44Srgs5TDkVLUyIh9lhwExC/e079Cch9cFx6nrXu94Kq+y0ekPgjY8In6wmyGQODbwL0u1Ob3nLW9rDH/7w7oNSXzkOw4985CPd2Wf3+OEPf9h3V4udm4lViegW8POkJz2p+x6Y+XQpLX0AkS0hOo/ea9CH5CLPKaec0gf/X//61/6bzGOBFugrg6721SyEF/yBge04x//FUgUDeojUq/WrnIlTlo6kWXgsTBy1FdHfbW5zm/799a9/vZfPLVXoJUxDzbepsUyC+eppUxuAV26IJz/5ye3ggw/uN4vhhRUjH9DL+Kgh/IbnGgtgvHPL0MOXvvSlngahl29uEe194xvf6HXVC73atj7S94INnCWOV2VTTuw3o8ZmyDVk8UM/bSaeuThVRsWsB04yAyeN1TL1t1ijCfV3LTMJ8kLTzZiJaDeFmjcJoa0d52Y7IegAaVZ/ivQdhDf1dBbnqUXAZJPmLO4mgsXEannd617XFzLvRFgwaW+aPIsFugno0wHL1S2hhREir+A7POS3egn5TX7fFiSDhFxiCxV/2mte85p2+umnz7U7C8qBvnI82HzzzfvvTIT5gI/U1xYLwcJvk6B/SH4Q2VI3ciXU36nLIjS50XZ853+qPhHxZS5zme60tTh///vf7/WH40U5YchTID15xtCzn/3s/g3T6kDytGOCs8pNYuPNJNcmPurCED6G35FdGP4G5VjJbu1srnxaFir+NnnaUNZxz9HXWOOXlZajv+/w4tvYRNO4wb93ZDZ5zzXSZuDbfET3KU95St8w8AmJZ46cENS4gec9BC//aaed1okIKZPvWFMGltWfch/3uMf1dzTMaA/hDALlpw3eShfqN8ifhsoPC8MNA2vHsW7rrbfutzAm453vfOe5dlJHbFfVETqM844sdgtyWezwTBYDxy4fGSqdpUL4i7wPfOADu1XiyDGpvaRlcJmQJsirX/3q7uBV14DRL2RRllwGhzrSWEwmrry0vxDU8rPqyk8Z/NL33e9+9/4Wyc0R3oZQPnxFTmNtp5126n64XXbZpfePWy2yK0cuR/YPfehDPc0CaCGONRB6HOLG5tFHH91++9vfdr+XjUhdC65yyoeHSRimKxtMqwOhib7bQsd3/sQTTjih60E6kBcqXYgugOxupzmeLTAc3vzEYmUe8YhHdKuFb8hm8qY3valbq3yvVUanjstd7nLty1/+ct+gXSbYxOgjtJRnIb70pS/tRzpHNhsLvdGnzS6yVfnNM5Yxt4sNAZSLXKMXJ7GBQ2F2FAO4EtJofltVr3Od6/SBwNPPLDX4+XEI4OkBJaRujWtIWkVNryFpw5jfhKXHmed8a5Le5S536edsnWJAp2xkgDjy8C8tnRCT+gc/+EGXg5WVvASoPCwm1LqgDXJYXH3bHKC2WdvWBxz4zv2uzTnO7YAGq4nPB0cWZdVjHaCrnFsZx7shXRjylpC0ipo+qZwY7cSsGX3EQrUBug3FE1QeUkeQn7HmeMAJayNhdfCb2QyBfCaN/j/iiCO6Zcj5nQkP6JpcdOcCxdHEo1QT3UTeb7/9uhWuzUxeAfI9TAuG+Qk1D/DghtkCjWeWhYXqPe95Tx9rbuuMyegAH77F+DI/3/CGN/TjIB+RJwKPetSjuoFABkd2eP/73983bZYSenRnfluE0KIDdD3IBePdgsPKoVO0XBzQh3JOGt7JKU9faDoOPvWpT+3jLMBz+BUzGiDPkSpmLk4qJOTNB7MN0pAQBVOQHcakOPHEE/sxkNPWzYgJYVcyKCip1g9Cp35nICQe5gehE5oC0xK0bUG0KNktdDZ6dpBYepUWXwzoQDcL8qG2kYUqvyvq7/C5kBDkW3z1q1+9y8EMNxjShjzfqYsnt1wmIL0/97nP7YuOAWlgyXcsVCeDJLTk5QgBiYP6O+3VgN60PCHwjVbSfFuYHKc++MEPdjomSPJTvwa82nwy1vSlsWZy8lFe6lKXagcddFAvpzyHr4WJJcLqlVblZFWylqWLWacPeMAD+nHH401j15HaeKm8B34nLd/DUPMqwod0Y9aYowN8aI/D2oNJGw4XBz7IBelD/FnYnXA4/A844IC+AStHH9wPuW0jv+MZI0PgH7IYhi91WM/aBxtb9CH41h5LSh19hYZ5jbbv+mYKfwl+px2bILCwWLvpK5i5OAGCOs4tFjB3K2pjdmnmnEHmrE1xArMaHXDWTPmkgW/MJWTyE7bGFJEyQqVR6dqJYy4y4e0engHgzaQ1yfGLP/XUSYjSnMkN8tCtcUJ+V+Q3WpXXsSF1hYBjlVXg7U3euKRMeFHX7sVCtdNbkHJkk+fbwubYCtJSH0Kn/q7Ib3XCq5A+0UfyDHi/Y5ElpG7aDF+sNRPBn1AEtW3f+S1W3+RwHNGfFuCMNToKWA+pl3xhSBtMYGM8PjeWgU3K2xyTHhxfHCGrLImrnNEH+Yc6SKh1w4NvGxB4P8gCJKOnBG7tHKnI5xSiHDpAJjqwWPP7OILFBQHoOj1kwZ8WAt90gZ7jlwXfhs4SsxFY9EAfoB2dTgqRTwC/BXB7CtwvQsrAf3pxHqhgVWMyglUxDQZp0HmfUEw8iqBIsQ7l/7B76ewwF6Yp2cS5973v3R9wqWPHsLo7M1to7BaulmPuU4gXvpzzVmm/kw7MfSayXc8klY4fi54Bw5Ka9hraDoAH+fhSJvRhWGcSDdCeZxdkmFamQhssU7ehvlNH7FgHZI2pnD4QK2MTsSlYeA3k6FaehVg/urXUD9FT6kLiYPg7GMqFBp422WSTub5yTKh9NZQrvJnwrB7HTQtnIE8fgP6I7lOf34g16XmH/sxYowNjzaLFBZG2xEIgLZBucVTXJQcdZUPVrgUL4gwO8CKfA5i7IG0JyvLL0IEFQ9nwIWbZ2ASlQ3iLA5m+9BO5zAUysipZxeTTnuOv9llU5twLX/jCPkcyzrWjT8RkEkPaGqLywlriU/X0Ql005aNr7kD6BKbRhJqXb7F+Rc+4NL6l5SQzanFSAWMmKWRiQBXWosTZ6tjG0UWQMOIJgpfIdgCWV62Xb204RulQHYFJAwHjlJT3SnPMn1fe1b4jS4CWIN+ZFw/4MVDUw7s20WQRGcDaqHwApaljUVUPIssYoKW8uo7DBi+eahtDRCa7vUkcGmmXDoAMykLl2zcnv/ZYIPScPhBMPvQt1uoI6IT+GISnSXKJPepMXxkPta+qXBC+dt55576JmHT+vittiDlkgY/DBHRM+/SnP93bdUR3TDNx6lizKVnwWMt2/dpehd/q4c9CFP+Kv6qXnkVIORYCmPjZCFMfLNL5s4xAfdYAHeiX1BHow01hLHSI3PgBRoA0vwV5LBfHUosTGaVZUJ/4xCd2WlW/gG/9xAI0V5SHtDVE0vB629vetrcb31z4UiYbpc1kGq1pqPxlnlnABQit0ZaTCZFFKUQAoTDnNsjA5ABXVqdIF9wyEbBOjCDM6AwO23SiGB2mpUdozFbn5tBFI50GNU3nO7sTnjlb2wM7rgXKC1jlhzxpI+1nkA5pzIfwRPFMc3WTNh/qIEiculX/5INKV10T3OQhl7zQ48Pga7Po0yGoJ4zlDVJuKFfacZ1sp3XzE+sD30O5Uk/M0mItsICmgRUGLAmLEweqScnHpH/0F6DJggD9Xnkbyuk3SLO4mMQuGvKEQH7qyAO3eH5rT7uRySJ55JFH9u/Uk+9mmHxeeSdPfXHqhidpYFORpp9reYEu84Qk5S2q/szEMZ5+UkfgmLaIOTmwdugi7Q0RevLpA12WWawzMofnPOshd9paDLSJrnFZfVTwr2V/BjTMlxDT1gIUAlEEoQ0gg9YKnUYJ4yaAE42fxHk1gkSo+lv5LAiCNDHIy29BuaSBOPzwz3DMUyw/U/ITW0gthhyNkHqBgcFSxDOZhvmzUNvCI37Fs0JkSt1A+6wAwFudjOHNgGKxOA447gbouZU0gPVNnoEE9XsWUlaMbuSqMfhWJvIM5RLCNyvPLST/YA0sX4ss8LGQjf9Fv7Cw0eM7Q8f40zY6nrvwy7Ew0A/qN6iX2AbIynAjlpvk5HNnOEJpy2SsC21oiqUJ+BCkJdS8xLVuoM38rSqri+VeId1EhixSWbg9lYEsnOo7ToKNArSFRm0zSJ7AYiW3erHAA+k2B+1ZkKfRm4Za1lqiP7O+oEU/MGpxUkHlXF/zXUAaEdv5nG1NeM44aSa1o5w3NZRMGFf0TP8IJBYg3xSRkN/Jm5QvpH5AuawFuyeedJjyBDewLU58MnkyAJEHHbud2AAw0JM3FpUnofI8KwzrBo4UJjm5BKhlvUfBN/3HMa28F88GE7gqlsfqGOp/DGp7wpBvMdTfNR/E2o5OLboWVEePGlxf6zsgE6tAX5DRxJPHt4aOCRvflcFuU7IQkxMia0V4EPJQN1fpLFOx8cISczHib8ImXUTAUFZBWg2T8lMXLRCzzhzRuDfIlLopZxHFVxZuvEHmHV2Q21FYHp35G1P1bWyV74qkyXekg7hn6EO6dlnnbgS9WjeW1JtEbxpSXjCOxeQ117QRzFycQkSlHAcobAiTwGJk4YnJxxT2xsIrZEKpz/eUa9BKG8RRwDCm8PwelhMgtMTMWfAvCCiHP8Gg9jjtE5/4RH+3QfGQegJQPtjFTICUG4vwFP7wMDYM6+bbNbCgQ+MDCeTbLemJ1aiP8Owa3K7vEgJtTwjyDkWdKvMYVH6EynN+D/uqlknd2mZ4SMhENCHU0281P2kmWl6iG2uerWSs2fHzD6qlPWEIeS49vCviP6Ef9cmgDdYbf44/cGcl4E2d0BSHjnpC8oWMu+QPy6VuaKHP6vXGituBFagsGvrX33M6iTim2ezVM++UYf0BC9qzjGxSFibyeC+FJkzShTR0WEbasGB4viAtbXCV0IeFySKaeRFZZkEbkRVcfoETVY6dwcwZVxv1BAABTmmLUPIQjBnNx+ChGye1q88DDjigK1YZJrdVl4MNooxJiBBgJ2SViYPkVeBHkMdxaGd1brZYuib22teVKL+Xx2T8UYCHyBIanLlgQMpHM2VWJ9Im/bEwMiBMvKojMec+i8HC5O2PPuBE9mwi/4SF9y+cydUcn9YHi8Gwr8LfEFWXvmtIGri0sEixvKWRgflvwkln/fI78VV6Tc2yMQbt/Pycec8VWSukCehY9E1+Y5Rz3rsbL8mNYX9NQIfaDo1J9IIqsxMFGYKaV1Fpace/BOA9k7+mcGHAAW4htrGaZ242QT2nA3Xwy8muriMoHWnfWHGzaQGwYM3i3SnDOFIm+nASwcskfdT5MwsplzhWn4uOIONx1L+EiWGBBcGi0PEsjwga2J3t6jrZzQwFci5Ks+Izs1krzPXa0fNBGfSY9EzMmNXTELoGpQ7y4tdq76bKcTSdjmbKRob8trtYvLzBMBgsrjCG36XGkDcTk//OwutWSX5kkMa/xqrybaDm1s6CYRI6trz1rW/t75DG9sFCQK8sEP2f6+aVaUN/G1c2lHr7aCw53mnPJGTZGGt2fcdbE5Fj3nExdSbxEb255WJleKRqQ3ONjraJ6Pg0H435gCYLh0U3FngyQfm/WC9u+hgELCO0zCt6wRPEWtS/5hbjwKUUy5JbxRHZuNf3GU+T5JCGprHh0sE/b8KipA/zZ5o+0AzdWUhZ9VisXpDrV0dm1lnK9Pi8AvNqOwUxgzkK8qcCHqX584A4vSECm9xZRNSTP0yrgqXeyiK0xEL4cu3p2+IKtf1A+fBqQXM76E8X7MYpD0vF60IRmbRvwXFtzSqKk7zyx3LQL8PbD9auyQJJC9aUXItB9ACTxhp/S+RMGtR6FcN0m5gJWmnIF6K3SXRWFpWP+q0/bTg2JgspJL+WM9mzIURufU6WpCk7rBdIC2reUB+Z86EDQ1qToGwtz2jwr5H653oYO+Ev+aP/a6gQxhRHm/M9s5kTK0TliwVpoHzSaxokfRLkQeoJ6oVe8oYITXH4Snt+S/c7ZQLfggXY61cD3tl6yPOaQPgU49tAdWyzO1qo7JjRTfQEBlGVH6ITYSkR3tAPD0LSF4LUEYeefqn0qhy+YZifNJjEhzSQ7pu+YiXDUH+TaExCpYsG4B9m0RjyFNmDSX2qnBD5U8d36CQ/5efjAZRZFfqo/eLFOXeQvwMMlAnN0cc6FcSCv+TmWPYnBxxmnG0aDdF857c6NS10kj8LyhFmbHm0IUrUdtqTNmxffuh7j8IUdnUdn5T00FxTSPtiO5g+cNnguJs/noxMVd7I6PekPlhqoL2QvpqFIb3wHRmqTMmfJGfyJyH5KT/U3xga0xAaC0VtL/xA6IWnYTnIuJeXtFon5SehlkmdpdJHpWGeubjxVi4WfvKC0f/7CsI1dh42id36OAczN2vjQ0xKW12YxhN+KV4eh6srY6+LOVedg+eTZ3UjvACe+SL4dbxfsoi6AEj+NJ7XBjmWGqtCzmn6W1MYy8+kMkshx9j2p8HYTfCuyWPb4TyrC2qwqP/xNxNa8IbGWTdP/tPIugD8Ajk8+nOj5U8eyFBlobCV6ZylQvgQp0NdNvA9uUnlDE36MpaxtiDrBXCus5j4raXNN88WtDipDCEqDrGat64gyhgqJQpbG2WqvNaODYayLGMZaxqLnWdTF6dKMJUnQQOwru/WkYPMQyWtzUj/rGt8L+N/E2PGa/IWdaxbxjKWsYxVjamLU0wu70j8wei6bhktYxnLWDfg8fTZZ5/d/g+Jqa1RDf3BuQAAAABJRU5ErkJggg==;" parent="hqYTHTNWbjo1vj10XiDc-51" vertex="1">
          <mxGeometry x="5" y="40" width="126.39" height="15" as="geometry" />
        </mxCell>
        <mxCell id="hqYTHTNWbjo1vj10XiDc-55" style="edgeStyle=orthogonalEdgeStyle;rounded=0;orthogonalLoop=1;jettySize=auto;html=1;exitX=1;exitY=0.75;exitDx=0;exitDy=0;entryX=0.92;entryY=0.978;entryDx=0;entryDy=0;entryPerimeter=0;" parent="hqYTHTNWbjo1vj10XiDc-51" source="hqYTHTNWbjo1vj10XiDc-53" target="hqYTHTNWbjo1vj10XiDc-53" edge="1">
          <mxGeometry relative="1" as="geometry" />
        </mxCell>
        <mxCell id="hqYTHTNWbjo1vj10XiDc-63" style="edgeStyle=orthogonalEdgeStyle;rounded=0;orthogonalLoop=1;jettySize=auto;html=1;" parent="1" source="hqYTHTNWbjo1vj10XiDc-56" target="hqYTHTNWbjo1vj10XiDc-61" edge="1">
          <mxGeometry relative="1" as="geometry" />
        </mxCell>
        <mxCell id="hqYTHTNWbjo1vj10XiDc-56" value="Calculating everything" style="rounded=0;whiteSpace=wrap;html=1;" parent="1" vertex="1">
          <mxGeometry x="390" y="790" width="100" height="50" as="geometry" />
        </mxCell>
        <mxCell id="hqYTHTNWbjo1vj10XiDc-58" style="edgeStyle=orthogonalEdgeStyle;rounded=0;orthogonalLoop=1;jettySize=auto;html=1;" parent="1" source="hqYTHTNWbjo1vj10XiDc-52" target="hqYTHTNWbjo1vj10XiDc-56" edge="1">
          <mxGeometry relative="1" as="geometry" />
        </mxCell>
        <mxCell id="hqYTHTNWbjo1vj10XiDc-64" style="edgeStyle=orthogonalEdgeStyle;rounded=0;orthogonalLoop=1;jettySize=auto;html=1;" parent="1" source="hqYTHTNWbjo1vj10XiDc-59" target="hqYTHTNWbjo1vj10XiDc-62" edge="1">
          <mxGeometry relative="1" as="geometry" />
        </mxCell>
        <mxCell id="hqYTHTNWbjo1vj10XiDc-59" value="Calculating everything" style="rounded=0;whiteSpace=wrap;html=1;" parent="1" vertex="1">
          <mxGeometry x="670" y="790" width="100" height="50" as="geometry" />
        </mxCell>
        <mxCell id="hqYTHTNWbjo1vj10XiDc-60" style="edgeStyle=orthogonalEdgeStyle;rounded=0;orthogonalLoop=1;jettySize=auto;html=1;" parent="1" source="hqYTHTNWbjo1vj10XiDc-41" target="hqYTHTNWbjo1vj10XiDc-59" edge="1">
          <mxGeometry relative="1" as="geometry" />
        </mxCell>
        <mxCell id="3JH_1eD_i8Jyyyj0wYqX-3" style="edgeStyle=orthogonalEdgeStyle;rounded=0;orthogonalLoop=1;jettySize=auto;html=1;entryX=0;entryY=0.5;entryDx=0;entryDy=0;" edge="1" parent="1" source="hqYTHTNWbjo1vj10XiDc-61" target="3JH_1eD_i8Jyyyj0wYqX-1">
          <mxGeometry relative="1" as="geometry" />
        </mxCell>
        <mxCell id="hqYTHTNWbjo1vj10XiDc-61" value="The result of double calculating" style="shape=parallelogram;perimeter=parallelogramPerimeter;whiteSpace=wrap;html=1;fixedSize=1;" parent="1" vertex="1">
          <mxGeometry x="326.87" y="870" width="226.25" height="40" as="geometry" />
        </mxCell>
        <mxCell id="3JH_1eD_i8Jyyyj0wYqX-4" style="edgeStyle=orthogonalEdgeStyle;rounded=0;orthogonalLoop=1;jettySize=auto;html=1;entryX=1;entryY=0.5;entryDx=0;entryDy=0;" edge="1" parent="1" source="hqYTHTNWbjo1vj10XiDc-62" target="3JH_1eD_i8Jyyyj0wYqX-1">
          <mxGeometry relative="1" as="geometry" />
        </mxCell>
        <mxCell id="hqYTHTNWbjo1vj10XiDc-62" value="The result of float calculating" style="shape=parallelogram;perimeter=parallelogramPerimeter;whiteSpace=wrap;html=1;fixedSize=1;" parent="1" vertex="1">
          <mxGeometry x="606.88" y="870" width="226.25" height="40" as="geometry" />
        </mxCell>
        <mxCell id="3JH_1eD_i8Jyyyj0wYqX-1" value="&lt;font color=&quot;#ff3333&quot;&gt;End&lt;/font&gt;" style="ellipse;whiteSpace=wrap;html=1;" vertex="1" parent="1">
          <mxGeometry x="525" y="968" width="120" height="80" as="geometry" />
        </mxCell>
      </root>
    </mxGraphModel>
  </diagram>
</mxfile>
